<svg xmlns="http://www.w3.org/2000/svg" viewBox="0 0 13.6 16" width="13.6" height="16"><path d="M6.8 0C3.1 0 .1 2.9 0 6.6v.2c.1 1.8.7 3.5 1.8 4.9l.2.4c1 1.3 2.3 2.5 3.6 3.4l.4.2c.5.3 1.1.3 1.6 0 1.1-.7 2.1-1.5 3-2.5 1.8-1.9 2.9-4.1 3-6.3v-.1C13.6 3.1 10.7.1 7 0h-.2zm0 1.2c3 0 5.5 2.4 5.6 5.4v.3c0 1.8-1 3.8-2.6 5.5-.9.9-1.8 1.6-2.8 2.3l-.1.1H6.6c-1.5-1-2.8-2.2-3.9-3.7-.9-1.2-1.4-2.6-1.5-4v-.3c0-3 2.4-5.5 5.4-5.6h.2zm0 3.1c-1.4 0-2.6 1.2-2.6 2.6 0 1.4 1.2 2.6 2.6 2.6 1.4 0 2.6-1.2 2.6-2.6 0-1.4-1.2-2.6-2.6-2.6zm0 1.2c.8 0 1.4.6 1.4 1.4 0 .8-.6 1.4-1.4 1.4-.8 0-1.4-.6-1.4-1.4 0-.7.6-1.4 1.4-1.4z" fill-rule="evenodd" clip-rule="evenodd" fill="#2d2c2f"/></svg>