<svg xmlns="http://www.w3.org/2000/svg" viewBox="0 0 16.2 18" width="16.2" height="18"><path d="M12.1.5c-.1-.3-.3-.5-.6-.5s-.6.3-.6.6v.7H5.4V.5C5.3.2 5.1 0 4.7 0c-.3 0-.6.3-.6.6v.7C1.6 1.5 0 3.2 0 5.8v7.6C0 16.3 1.8 18 4.6 18h7c2.8 0 4.6-1.7 4.6-4.5V5.8c0-2.7-1.6-4.3-4.1-4.5V.5zm-1.3 2.1v.9c0 .3.3.5.6.5s.6-.3.6-.6v-.8c1.9.2 3 1.3 3 3.2v.4H1.2v-.4c0-2 1-3.1 2.9-3.2v.9c.1.3.3.5.6.5s.6-.3.6-.6v-.8h5.5zM1.2 7.5v6c0 2.2 1.2 3.3 3.3 3.3h7c2.2 0 3.3-1.1 3.3-3.3v-6H1.2zm11.2 2.6c0-.3-.3-.6-.6-.6h-.1c-.3 0-.5.3-.5.6s.3.6.6.6h.1c.3 0 .5-.3.5-.6zm-4.3-.6c.3 0 .6.3.6.6s-.2.6-.5.6h-.1c-.4 0-.6-.3-.6-.6s.2-.6.6-.6zm-3.1.6c0-.3-.3-.6-.6-.6h-.1c-.3 0-.5.3-.5.6s.3.6.6.6h.1c.3 0 .5-.3.5-.6zm6.8 2.6c.3 0 .6.3.6.6s-.2.6-.5.6h-.1c-.4 0-.6-.3-.6-.6s.2-.5.6-.6zm-3.1.7c0-.3-.3-.6-.6-.6H8c-.3 0-.5.3-.5.6s.3.6.6.6h.1c.3-.1.5-.3.5-.6zm-4.3-.7c.4 0 .6.3.6.7 0 .3-.2.6-.5.6h-.1c-.3 0-.6-.3-.6-.6 0-.4.2-.6.6-.7z" fill-rule="evenodd" clip-rule="evenodd" fill="#ffbc2b"/></svg>