<svg width="56" height="62" viewBox="0 0 56 62" fill="none" xmlns="http://www.w3.org/2000/svg"><path fill-rule="evenodd" clip-rule="evenodd" d="M42.256 3.809A2.083 2.083 0 0040.198 2a2.085 2.085 0 00-2.077 2.093v2.314H19.904V4.093l-.018-.284A2.083 2.083 0 0017.828 2a2.085 2.085 0 00-2.077 2.093v2.366C7.24 7.045 2 12.559 2 21.457v25.255C2 56.262 7.875 62 17.289 62H40.71C50.136 62 56 56.358 56 46.923V21.457c.027-8.9-5.196-14.414-13.725-14.998V4.093l-.02-.284zm-4.135 6.784v2.684l.019.284a2.083 2.083 0 002.058 1.809 2.085 2.085 0 002.077-2.093v-2.622c6.205.516 9.59 4.253 9.57 10.796v1.212H6.155v-1.206c0-6.538 3.404-10.283 9.597-10.802v2.622l.019.284a2.083 2.083 0 002.058 1.809 2.085 2.085 0 002.076-2.093v-2.684h18.217zM6.154 26.849v19.863c0 7.208 3.986 11.102 11.135 11.102H40.71c7.173 0 11.135-3.813 11.135-10.89V26.848H6.154zm37.25 8.806c0-1.156-.93-2.093-2.077-2.093l-.308.019a2.088 2.088 0 00-1.795 2.074 2.09 2.09 0 002.103 2.093l.282-.02a2.088 2.088 0 001.794-2.073zm-14.366-2.093c1.147 0 2.077.937 2.077 2.093 0 1.06-.781 1.935-1.795 2.074l-.282.019a2.09 2.09 0 01-2.102-2.093c0-1.06.781-1.935 1.795-2.074l.307-.02zm-10.237 2.093c0-1.156-.93-2.093-2.077-2.093l-.307.019a2.088 2.088 0 00-1.795 2.074c0 1.156.93 2.093 2.077 2.093l.307-.02a2.088 2.088 0 001.795-2.073zm22.526 8.753c1.147 0 2.077.937 2.077 2.093 0 1.06-.782 1.935-1.796 2.074l-.281.019a2.09 2.09 0 01-2.103-2.093c0-1.06.781-1.935 1.795-2.074l.308-.019zm-10.212 2.093c0-1.156-.93-2.093-2.077-2.093l-.307.02a2.088 2.088 0 00-1.795 2.073 2.09 2.09 0 002.102 2.093l.282-.02a2.088 2.088 0 001.795-2.073zm-14.39-2.093c1.146 0 2.076.937 2.076 2.093 0 1.06-.781 1.935-1.795 2.074l-.307.019a2.085 2.085 0 01-2.077-2.093c0-1.06.781-1.935 1.795-2.074l.307-.019z" fill="#FFBC2B"/><path fill-rule="evenodd" clip-rule="evenodd" d="M42.256 3.809A2.083 2.083 0 0040.198 2a2.085 2.085 0 00-2.077 2.093v2.314H19.904V4.093l-.018-.284A2.083 2.083 0 0017.828 2a2.085 2.085 0 00-2.077 2.093v2.366C7.24 7.045 2 12.559 2 21.457v25.255C2 56.262 7.875 62 17.289 62H40.71C50.136 62 56 56.358 56 46.923V21.457c.027-8.9-5.196-14.414-13.725-14.998V4.093l-.02-.284zm-4.135 6.784v2.684l.019.284a2.083 2.083 0 002.058 1.809 2.085 2.085 0 002.077-2.093v-2.622c6.205.516 9.59 4.253 9.57 10.796v1.212H6.155v-1.206c0-6.538 3.404-10.283 9.597-10.802v2.622l.019.284a2.083 2.083 0 002.058 1.809 2.085 2.085 0 002.076-2.093v-2.684h18.217zM6.154 26.849v19.863c0 7.208 3.986 11.102 11.135 11.102H40.71c7.173 0 11.135-3.813 11.135-10.89V26.848H6.154zm37.25 8.806c0-1.156-.93-2.093-2.077-2.093l-.308.019a2.088 2.088 0 00-1.795 2.074 2.09 2.09 0 002.103 2.093l.282-.02a2.088 2.088 0 001.794-2.073zm-14.366-2.093c1.147 0 2.077.937 2.077 2.093 0 1.06-.781 1.935-1.795 2.074l-.282.019a2.09 2.09 0 01-2.102-2.093c0-1.06.781-1.935 1.795-2.074l.307-.02zm-10.237 2.093c0-1.156-.93-2.093-2.077-2.093l-.307.019a2.088 2.088 0 00-1.795 2.074c0 1.156.93 2.093 2.077 2.093l.307-.02a2.088 2.088 0 001.795-2.073zm22.526 8.753c1.147 0 2.077.937 2.077 2.093 0 1.06-.782 1.935-1.796 2.074l-.281.019a2.09 2.09 0 01-2.103-2.093c0-1.06.781-1.935 1.795-2.074l.308-.019zm-10.212 2.093c0-1.156-.93-2.093-2.077-2.093l-.307.02a2.088 2.088 0 00-1.795 2.073 2.09 2.09 0 002.102 2.093l.282-.02a2.088 2.088 0 001.795-2.073zm-14.39-2.093c1.146 0 2.076.937 2.076 2.093 0 1.06-.781 1.935-1.795 2.074l-.307.019a2.085 2.085 0 01-2.077-2.093c0-1.06.781-1.935 1.795-2.074l.307-.019z" fill="url(#paint0_linear)" fill-opacity=".42" style="mix-blend-mode:overlay"/><path fill-rule="evenodd" clip-rule="evenodd" d="M40.256 1.809A2.083 2.083 0 0038.198 0a2.085 2.085 0 00-2.077 2.093v2.314H17.904V2.093l-.018-.284A2.083 2.083 0 0015.828 0a2.085 2.085 0 00-2.077 2.093v2.366C5.24 5.045 0 10.559 0 19.457v25.255C0 54.262 5.875 60 15.289 60H38.71C48.136 60 54 54.358 54 44.923V19.457c.027-8.9-5.196-14.414-13.725-14.998V2.093l-.02-.284zM36.12 8.593v2.684l.019.284a2.083 2.083 0 002.058 1.809 2.085 2.085 0 002.077-2.093V8.655c6.205.516 9.59 4.253 9.57 10.796v1.212H4.155v-1.206c0-6.538 3.404-10.283 9.597-10.802v2.622l.019.284a2.083 2.083 0 002.058 1.809 2.085 2.085 0 002.076-2.093V8.593h18.217zM4.154 24.849v19.863c0 7.208 3.986 11.102 11.135 11.102H38.71c7.173 0 11.135-3.813 11.135-10.89V24.848H4.154zm37.25 8.806c0-1.156-.93-2.093-2.077-2.093l-.308.019a2.088 2.088 0 00-1.795 2.074 2.09 2.09 0 002.103 2.093l.282-.02a2.088 2.088 0 001.794-2.073zm-14.366-2.093c1.147 0 2.077.937 2.077 2.093 0 1.06-.781 1.935-1.795 2.074l-.282.019a2.09 2.09 0 01-2.102-2.093c0-1.06.781-1.935 1.795-2.074l.307-.02zm-10.237 2.093c0-1.156-.93-2.093-2.077-2.093l-.307.019a2.088 2.088 0 00-1.795 2.074c0 1.156.93 2.093 2.077 2.093l.307-.02a2.088 2.088 0 001.795-2.073zm22.526 8.753c1.147 0 2.077.937 2.077 2.093 0 1.06-.782 1.935-1.796 2.074l-.281.019a2.09 2.09 0 01-2.103-2.093c0-1.06.781-1.935 1.795-2.074l.308-.019zm-10.212 2.093c0-1.156-.93-2.093-2.077-2.093l-.307.02a2.088 2.088 0 00-1.795 2.073 2.09 2.09 0 002.102 2.093l.282-.02a2.088 2.088 0 001.795-2.073zm-14.39-2.093c1.146 0 2.076.937 2.076 2.093 0 1.06-.781 1.935-1.795 2.074l-.307.019a2.085 2.085 0 01-2.077-2.093c0-1.06.781-1.935 1.795-2.074l.307-.019z" fill="#2D2C2F"/><defs><linearGradient id="paint0_linear" x1="29" y1="2" x2="29" y2="62" gradientUnits="userSpaceOnUse"><stop stop-color="#fff"/><stop offset="1"/></linearGradient></defs></svg>