<svg xmlns="http://www.w3.org/2000/svg" viewBox="0 0 33 17.3" width="33" height="17.3"><path d="M18.1 17.2s.6-.1.9-.4c.3-.3.3-.8.3-.8s0-2.4 1.2-2.8c1.2-.4 2.8 2.3 4.4 3.4 1.2.8 2.2.6 2.2.6l4.4-.1s2.3-.1 1.2-1.8c-.1-.1-.6-1.2-3.3-3.5-2.8-2.4-2.4-2 .9-6.1 2-2.5 2.8-4 2.6-4.6-.2-.6-1.7-.5-1.7-.5h-5s-.4 0-.6.1c-.3.1-.4.5-.4.5s-.8 2.1-1.9 3.8c-2.2 3.4-3.1 3.6-3.5 3.4-.8-.5-.6-2-.6-3.1 0-3.3.6-4.7-1.1-5.1-.5-.1-.9-.2-2.2-.2-1.8 0-3.3 0-4.1.4-.6.3-1 .8-.7.9.3 0 1.1.2 1.5.7.4.6.4 2 .4 2s.3 3.9-.7 4.4c-.7.3-1.6-.3-3.6-3.5C7.7 3.3 7 1.6 7 1.6s-.2-.4-.4-.6C6.2.8 5.8.8 5.8.8H1.1s-.7 0-1 .3c-.2.3 0 .8 0 .8S3.8 9.8 8 13.8c3.8 3.7 8.2 3.4 8.2 3.4h1.9z" fill="#2d2c2f"/></svg>