<svg xmlns="http://www.w3.org/2000/svg" viewBox="0 0 425.8 510.1" width="12.297" height="14.734"><path d="M10.6 429h74.5v69.6c0 3.4 1 6.2 3 8.3 2 2.2 4.5 3.3 7.7 3.3h55.6c2.9 0 5.4-1.1 7.5-3.3 2.1-2.2 3.2-4.9 3.2-8.3V429h168c3.1 0 5.7-1.1 7.7-3.3 2-2.2 3-5 3-8.3V371c0-3.4-1-6.2-3-8.3-2-2.2-4.6-3.3-7.7-3.3H162v-42.8h113.1c44.4 0 80.6-14.7 108.6-44.2 28.1-29.4 42.1-67.5 42.1-114.1 0-46.6-14-84.6-42.1-114.1C355.7 14.7 319.5 0 275.1 0H95.8c-3.1 0-5.7 1.1-7.7 3.3-2 2.2-3 5-3 8.3v227.9H10.6c-3.1 0-5.7 1.1-7.7 3.4s-3 5-3 8.2v54c0 3.4 1 6.2 3 8.3 2 2.2 4.5 3.3 7.7 3.3h74.5v42.8H10.6c-3.1 0-5.7 1.1-7.7 3.3-2 2.2-3 5-3 8.3v46.4c0 3.4 1 6.2 3 8.3 2.1 2.1 4.6 3.2 7.7 3.2zM162 77.2h106.5c23.5 0 42.5 7.5 56.9 22.5 14.4 15 21.6 34.5 21.6 58.7 0 24.2-7.2 43.7-21.6 58.7-14.4 15-33.4 22.5-56.9 22.5H162V77.2z" fill="#2d2c2f"/></svg>