<svg xmlns="http://www.w3.org/2000/svg" viewBox="0 0 491 637" width="12.35" height="16"><path d="M2.9 635.3c-2.2-2.2-2.3-13.5-.2-15.7 1.2-1.2 6.3-1.7 22.3-2.1 18.7-.5 21.5-.9 28.7-3.4 11.3-3.9 18.6-8.6 25.9-16.5 12.1-13.2 12.8-18.8 13.5-106.2l.6-67.3H48.6c-39.6 0-45.3-.2-46.8-1.7-2.5-2.4-2.5-26.2 0-28.6 1.5-1.5 7.2-1.7 46.6-1.7h45v-39.4h-45c-39.4 0-45.2-.2-46.6-1.7-2.5-2.4-2.5-26.2 0-28.6 1.5-1.5 7.2-1.7 46.6-1.7h45V215.6c0-128.7-1-149.3-7.6-167-4-10.7-16.5-20.5-32-25.4-4.4-1.4-11.6-2-28.2-2.5-18.1-.5-22.5-1-23.3-2.3C.6 15.8 1 4 2.9 2.1 4.4.6 18.1.4 137.2.4c145.9 0 153.4.3 188.6 6.4 43.8 7.6 77.2 21.8 103.9 44.1 14.4 12 30 29.8 38.3 43.7 9.2 15.4 12.2 23 17.4 44 7.7 31.2 5.9 67.4-4.9 100.2-3.3 9.9-12.7 29-18.8 38-28.4 42-74.6 66.9-138.2 74.4-9.7 1.1-28.2 1.5-75.9 1.5h-63v39.4h137.2c123.3 0 137.4.2 138.9 1.7 2.5 2.4 2.5 26.2 0 28.6-1.5 1.5-15.6 1.7-138.9 1.7H184.6v54.6c0 71.4 1.5 92.9 7.5 108.9 3 7.9 13 18.1 22.2 22.7 11.7 5.9 16.3 6.7 39.2 7.3 16.5.4 21.6.9 22.8 2.1 2.2 2.2 2.1 13.5-.1 15.7-1.5 1.5-15.4 1.7-136.7 1.7s-135.1-.3-136.6-1.8zm280.4-316.5c22.9-4.2 44.3-16.2 62.7-35.3 17.9-18.6 28.9-41.1 33.3-68.1 2.3-14.3 2.4-45.7.1-62.8-8.1-60.2-41-97.6-96-109.1-12.7-2.6-35-3.8-50.6-2.6-13.6 1-39.9 5.3-45.4 7.4l-2.8 1.1V321l45.8-.5c28.5-.3 48.6-1 52.9-1.7z" fill="#2D2C2F"/></svg>