<svg width="598" height="514" fill="none" viewBox="0 0 598 514" xmlns="http://www.w3.org/2000/svg"><path d="M236.979 72c66.136-53.745 152.533-97.847 253.526-52.486 9.962 4.475 14.943 6.712 25.65 15.178 6.754 5.34 18.657 18.276 23.419 25.45 7.549 11.371 10.745 20.433 17.138 38.557C606.453 239.71 615.56 307.661 559.5 444 515.621 550.714 181.986 539.914 69 371-131 72 160.695 133.99 236.979 72z" fill="#FFBC2B"/><path d="M236.979 72c66.136-53.745 152.533-97.847 253.526-52.486 9.962 4.475 14.943 6.712 25.65 15.178 6.754 5.34 18.657 18.276 23.419 25.45 7.549 11.371 10.745 20.433 17.138 38.557C606.453 239.71 615.56 307.661 559.5 444 515.621 550.714 181.986 539.914 69 371-131 72 160.695 133.99 236.979 72z" fill="url(#paint0_linear)" fill-opacity=".42" style="mix-blend-mode:overlay"/><defs><linearGradient id="paint0_linear" x1="242" y1="44.5" x2="485" y2="511.5" gradientUnits="userSpaceOnUse"><stop stop-color="#CCC"/><stop offset="1" stop-color="#313131"/></linearGradient></defs></svg>