<svg version="1.1" xmlns="http://www.w3.org/2000/svg" x="0" y="0" viewBox="0 0 48 41" width="48" height="41" xml:space="preserve"><style>.st0{fill:#f7f7f7}</style><path class="st0" d="M16.6 18.6h-6.5c-.8 0-1.4-.3-2-.8-.5-.5-.8-1.2-.8-2v-.9c0-2.1.7-3.8 2.2-5.3 1.4-1.5 3.2-2.2 5.2-2.2h1.8c.5 0 .9-.2 1.3-.6.4-.4.5-.8.5-1.3V1.9c0-.5-.2-.9-.5-1.3s-.7-.6-1.2-.6h-1.8c-2 0-3.9.4-5.7 1.2C7.2 2 5.7 3 4.3 4.4 3 5.7 1.9 7.3 1.2 9.1.4 10.9 0 12.9 0 14.9v20.5c0 1.6.5 2.9 1.6 4S4 41 5.5 41h11.1c1.5 0 2.8-.5 3.9-1.6s1.6-2.4 1.6-4V24.2c0-1.6-.5-2.9-1.6-4-1-1.1-2.3-1.6-3.9-1.6zM46.4 20.2c-1.1-1.1-2.4-1.6-3.9-1.6H36c-.8 0-1.4-.3-2-.8-.5-.5-.8-1.2-.8-2v-.9c0-2.1.7-3.8 2.2-5.3 1.4-1.5 3.2-2.2 5.2-2.2h1.8c.5 0 .9-.2 1.3-.6.4-.4.5-.8.5-1.3V1.9c0-.5-.2-.9-.5-1.3S43 0 42.5 0h-1.8c-2 0-3.9.4-5.7 1.2-1.9.8-3.5 1.8-4.8 3.2-1.3 1.3-2.4 2.9-3.2 4.8-.8 1.8-1.2 3.8-1.2 5.8v20.5c0 1.6.5 2.9 1.6 4s2.4 1.6 3.9 1.6h11.1c1.5 0 2.8-.5 3.9-1.6s1.6-2.4 1.6-4V24.2c.1-1.6-.4-2.9-1.5-4z"/></svg>