<svg width="56" height="62" viewBox="0 0 56 62" fill="none" xmlns="http://www.w3.org/2000/svg"><g clip-path="url(#clip0)"><path d="M3.055 15.595h11.811c.583 0 1.055-.525 1.055-1.172 0-.647-.472-1.172-1.055-1.172h-.588L9.919 2.685c-.172-.416-.546-.683-.959-.683-.412 0-.786.267-.958.683L3.643 13.251h-.588c-.583 0-1.055.525-1.055 1.172 0 .647.472 1.172 1.055 1.172zM8.96 5.986l.967 2.344H7.994l.966-2.344zm-1.933 4.687h3.867l1.063 2.578H5.964l1.063-2.578z" fill="#FFBC2B"/><path d="M3.055 15.595h11.811c.583 0 1.055-.525 1.055-1.172 0-.647-.472-1.172-1.055-1.172h-.588L9.919 2.685c-.172-.416-.546-.683-.959-.683-.412 0-.786.267-.958.683L3.643 13.251h-.588c-.583 0-1.055.525-1.055 1.172 0 .647.472 1.172 1.055 1.172zM8.96 5.986l.967 2.344H7.994l.966-2.344zm-1.933 4.687h3.867l1.063 2.578H5.964l1.063-2.578z" fill="url(#paint0_linear)" fill-opacity=".42" style="mix-blend-mode:overlay"/><path d="M43.134 15.595h11.811c.583 0 1.055-.525 1.055-1.172 0-.647-.472-1.172-1.055-1.172h-.588L49.998 2.685c-.171-.416-.546-.683-.959-.683-.412 0-.786.267-.958.683l-4.359 10.566h-.589c-.582 0-1.054.525-1.054 1.172 0 .647.472 1.172 1.055 1.172zm5.905-9.609l.967 2.344h-1.933l.966-2.344zm-1.933 4.687h3.867l1.063 2.578h-5.993l1.063-2.578z" fill="#FFBC2B"/><path d="M43.134 15.595h11.811c.583 0 1.055-.525 1.055-1.172 0-.647-.472-1.172-1.055-1.172h-.588L49.998 2.685c-.171-.416-.546-.683-.959-.683-.412 0-.786.267-.958.683l-4.359 10.566h-.589c-.582 0-1.054.525-1.054 1.172 0 .647.472 1.172 1.055 1.172zm5.905-9.609l.967 2.344h-1.933l.966-2.344zm-1.933 4.687h3.867l1.063 2.578h-5.993l1.063-2.578z" fill="url(#paint1_linear)" fill-opacity=".42" style="mix-blend-mode:overlay"/><path d="M14.866 59.655h-.588L9.919 49.089c-.172-.416-.546-.684-.959-.684-.412 0-.787.267-.958.684L3.643 59.655h-.588c-.583 0-1.055.524-1.055 1.172 0 .647.472 1.171 1.055 1.171h11.811c.583 0 1.055-.524 1.055-1.171 0-.648-.472-1.172-1.055-1.172zM8.961 52.39l.966 2.343H7.994l.966-2.343zm-2.997 7.265l1.063-2.578h3.867l1.063 2.578H5.964z" fill="#FFBC2B"/><path d="M14.866 59.655h-.588L9.919 49.089c-.172-.416-.546-.684-.959-.684-.412 0-.787.267-.958.684L3.643 59.655h-.588c-.583 0-1.055.524-1.055 1.172 0 .647.472 1.171 1.055 1.171h11.811c.583 0 1.055-.524 1.055-1.171 0-.648-.472-1.172-1.055-1.172zM8.961 52.39l.966 2.343H7.994l.966-2.343zm-2.997 7.265l1.063-2.578h3.867l1.063 2.578H5.964z" fill="url(#paint2_linear)" fill-opacity=".42" style="mix-blend-mode:overlay"/><path d="M54.945 59.655h-.588l-4.359-10.566c-.172-.417-.546-.684-.959-.684-.412 0-.787.267-.958.684l-4.359 10.566h-.589c-.582 0-1.054.524-1.054 1.171 0 .648.472 1.172 1.054 1.172h11.812c.583 0 1.055-.524 1.055-1.172 0-.647-.472-1.171-1.055-1.171zM49.04 52.39l.967 2.343h-1.933l.966-2.343zm-2.996 7.265l1.063-2.578h3.867l1.063 2.578h-5.993z" fill="#FFBC2B"/><path d="M54.945 59.655h-.588l-4.359-10.566c-.172-.417-.546-.684-.959-.684-.412 0-.787.267-.958.684l-4.359 10.566h-.589c-.582 0-1.054.524-1.054 1.171 0 .648.472 1.172 1.054 1.172h11.812c.583 0 1.055-.524 1.055-1.172 0-.647-.472-1.171-1.055-1.171zM49.04 52.39l.967 2.343h-1.933l.966-2.343zm-2.996 7.265l1.063-2.578h3.867l1.063 2.578h-5.993z" fill="url(#paint3_linear)" fill-opacity=".42" style="mix-blend-mode:overlay"/><path d="M16.448 9.033h1.582c.583 0 1.055-.525 1.055-1.172 0-.647-.472-1.172-1.055-1.172h-1.582c-.582 0-1.054.525-1.054 1.172 0 .647.472 1.172 1.054 1.172z" fill="#FFBC2B"/><path d="M16.448 9.033h1.582c.583 0 1.055-.525 1.055-1.172 0-.647-.472-1.172-1.055-1.172h-1.582c-.582 0-1.054.525-1.054 1.172 0 .647.472 1.172 1.054 1.172z" fill="url(#paint4_linear)" fill-opacity=".42" style="mix-blend-mode:overlay"/><path d="M23.62 9.033h1.582c.582 0 1.054-.525 1.054-1.172 0-.647-.472-1.172-1.054-1.172H23.62c-.583 0-1.055.525-1.055 1.172 0 .647.472 1.172 1.055 1.172z" fill="#FFBC2B"/><path d="M23.62 9.033h1.582c.582 0 1.054-.525 1.054-1.172 0-.647-.472-1.172-1.054-1.172H23.62c-.583 0-1.055.525-1.055 1.172 0 .647.472 1.172 1.055 1.172z" fill="url(#paint5_linear)" fill-opacity=".42" style="mix-blend-mode:overlay"/><path d="M30.791 9.033h1.582c.582 0 1.055-.525 1.055-1.172 0-.647-.473-1.172-1.055-1.172h-1.582c-.582 0-1.055.525-1.055 1.172 0 .647.473 1.172 1.055 1.172z" fill="#FFBC2B"/><path d="M30.791 9.033h1.582c.582 0 1.055-.525 1.055-1.172 0-.647-.473-1.172-1.055-1.172h-1.582c-.582 0-1.055.525-1.055 1.172 0 .647.473 1.172 1.055 1.172z" fill="url(#paint6_linear)" fill-opacity=".42" style="mix-blend-mode:overlay"/><path d="M39.544 6.69h-1.581c-.583 0-1.055.524-1.055 1.17 0 .648.472 1.173 1.055 1.173h1.581c.583 0 1.055-.525 1.055-1.172 0-.647-.472-1.172-1.054-1.172z" fill="#FFBC2B"/><path d="M39.544 6.69h-1.581c-.583 0-1.055.524-1.055 1.17 0 .648.472 1.173 1.055 1.173h1.581c.583 0 1.055-.525 1.055-1.172 0-.647-.472-1.172-1.054-1.172z" fill="url(#paint7_linear)" fill-opacity=".42" style="mix-blend-mode:overlay"/><path d="M39.544 54.967h-1.581c-.583 0-1.055.525-1.055 1.172 0 .647.472 1.172 1.055 1.172h1.581c.583 0 1.055-.525 1.055-1.172 0-.647-.472-1.172-1.054-1.172z" fill="#FFBC2B"/><path d="M39.544 54.967h-1.581c-.583 0-1.055.525-1.055 1.172 0 .647.472 1.172 1.055 1.172h1.581c.583 0 1.055-.525 1.055-1.172 0-.647-.472-1.172-1.054-1.172z" fill="url(#paint8_linear)" fill-opacity=".42" style="mix-blend-mode:overlay"/><path d="M32.373 54.967h-1.582c-.582 0-1.055.525-1.055 1.172 0 .647.473 1.172 1.055 1.172h1.582c.582 0 1.055-.525 1.055-1.172 0-.647-.473-1.172-1.055-1.172z" fill="#FFBC2B"/><path d="M32.373 54.967h-1.582c-.582 0-1.055.525-1.055 1.172 0 .647.473 1.172 1.055 1.172h1.582c.582 0 1.055-.525 1.055-1.172 0-.647-.473-1.172-1.055-1.172z" fill="url(#paint9_linear)" fill-opacity=".42" style="mix-blend-mode:overlay"/><path d="M25.202 54.967H23.62c-.583 0-1.055.525-1.055 1.172 0 .647.472 1.172 1.055 1.172h1.582c.582 0 1.054-.525 1.054-1.172 0-.647-.472-1.172-1.054-1.172z" fill="#FFBC2B"/><path d="M25.202 54.967H23.62c-.583 0-1.055.525-1.055 1.172 0 .647.472 1.172 1.055 1.172h1.582c.582 0 1.054-.525 1.054-1.172 0-.647-.472-1.172-1.054-1.172z" fill="url(#paint10_linear)" fill-opacity=".42" style="mix-blend-mode:overlay"/><path d="M18.03 54.967h-1.582c-.582 0-1.054.525-1.054 1.172 0 .647.472 1.172 1.054 1.172h1.582c.583 0 1.055-.525 1.055-1.172 0-.647-.472-1.172-1.055-1.172z" fill="#FFBC2B"/><path d="M18.03 54.967h-1.582c-.582 0-1.054.525-1.054 1.172 0 .647.472 1.172 1.054 1.172h1.582c.583 0 1.055-.525 1.055-1.172 0-.647-.472-1.172-1.055-1.172z" fill="url(#paint11_linear)" fill-opacity=".42" style="mix-blend-mode:overlay"/><path d="M50.301 19.11c0-.647-.472-1.172-1.054-1.172-.582 0-1.055.525-1.055 1.172v1.758c0 .647.473 1.172 1.055 1.172s1.054-.525 1.054-1.172V19.11z" fill="#FFBC2B"/><path d="M50.301 19.11c0-.647-.472-1.172-1.054-1.172-.582 0-1.055.525-1.055 1.172v1.758c0 .647.473 1.172 1.055 1.172s1.054-.525 1.054-1.172V19.11z" fill="url(#paint12_linear)" fill-opacity=".42" style="mix-blend-mode:overlay"/><path d="M50.301 27.078c0-.647-.472-1.171-1.054-1.171-.582 0-1.055.524-1.055 1.171v1.758c0 .647.473 1.172 1.055 1.172s1.054-.525 1.054-1.172v-1.758z" fill="#FFBC2B"/><path d="M50.301 27.078c0-.647-.472-1.171-1.054-1.171-.582 0-1.055.524-1.055 1.171v1.758c0 .647.473 1.172 1.055 1.172s1.054-.525 1.054-1.172v-1.758z" fill="url(#paint13_linear)" fill-opacity=".42" style="mix-blend-mode:overlay"/><path d="M50.301 35.047c0-.647-.472-1.172-1.054-1.172-.582 0-1.055.525-1.055 1.172v1.758c0 .647.473 1.171 1.055 1.171s1.054-.524 1.054-1.172v-1.757z" fill="#FFBC2B"/><path d="M50.301 35.047c0-.647-.472-1.172-1.054-1.172-.582 0-1.055.525-1.055 1.172v1.758c0 .647.473 1.171 1.055 1.171s1.054-.524 1.054-1.172v-1.757z" fill="url(#paint14_linear)" fill-opacity=".42" style="mix-blend-mode:overlay"/><path d="M49.247 41.843c-.582 0-1.055.525-1.055 1.172v1.758c0 .647.473 1.171 1.055 1.171s1.054-.524 1.054-1.171v-1.758c0-.647-.472-1.172-1.054-1.172z" fill="#FFBC2B"/><path d="M49.247 41.843c-.582 0-1.055.525-1.055 1.172v1.758c0 .647.473 1.171 1.055 1.171s1.054-.524 1.054-1.171v-1.758c0-.647-.472-1.172-1.054-1.172z" fill="url(#paint15_linear)" fill-opacity=".42" style="mix-blend-mode:overlay"/><path d="M8.75 41.843c-.583 0-1.055.525-1.055 1.172v1.758c0 .647.472 1.171 1.055 1.171.582 0 1.054-.524 1.054-1.171v-1.758c0-.647-.472-1.172-1.054-1.172z" fill="#FFBC2B"/><path d="M8.75 41.843c-.583 0-1.055.525-1.055 1.172v1.758c0 .647.472 1.171 1.055 1.171.582 0 1.054-.524 1.054-1.171v-1.758c0-.647-.472-1.172-1.054-1.172z" fill="url(#paint16_linear)" fill-opacity=".42" style="mix-blend-mode:overlay"/><path d="M9.804 19.11c0-.647-.472-1.172-1.054-1.172-.583 0-1.055.525-1.055 1.172v1.758c0 .647.472 1.172 1.055 1.172.582 0 1.054-.525 1.054-1.172V19.11z" fill="#FFBC2B"/><path d="M9.804 19.11c0-.647-.472-1.172-1.054-1.172-.583 0-1.055.525-1.055 1.172v1.758c0 .647.472 1.172 1.055 1.172.582 0 1.054-.525 1.054-1.172V19.11z" fill="url(#paint17_linear)" fill-opacity=".42" style="mix-blend-mode:overlay"/><path d="M9.804 27.078c0-.647-.472-1.171-1.054-1.171-.583 0-1.055.524-1.055 1.171v1.758c0 .647.472 1.172 1.055 1.172.582 0 1.054-.525 1.054-1.172v-1.758z" fill="#FFBC2B"/><path d="M9.804 27.078c0-.647-.472-1.171-1.054-1.171-.583 0-1.055.524-1.055 1.171v1.758c0 .647.472 1.172 1.055 1.172.582 0 1.054-.525 1.054-1.172v-1.758z" fill="url(#paint18_linear)" fill-opacity=".42" style="mix-blend-mode:overlay"/><path d="M9.804 35.047c0-.647-.472-1.172-1.054-1.172-.583 0-1.055.525-1.055 1.172v1.758c0 .647.472 1.171 1.055 1.171.582 0 1.054-.524 1.054-1.172v-1.757z" fill="#FFBC2B"/><path d="M9.804 35.047c0-.647-.472-1.172-1.054-1.172-.583 0-1.055.525-1.055 1.172v1.758c0 .647.472 1.171 1.055 1.171.582 0 1.054-.524 1.054-1.172v-1.757z" fill="url(#paint19_linear)" fill-opacity=".42" style="mix-blend-mode:overlay"/><path d="M32.268 51.92c3.722 0 6.758-3.313 6.85-7.425.002-.036.004-.072.003-.108l.002-.083V19.696c0-4.2-3.076-7.617-6.855-7.617h-8.016c-3.78 0-6.855 3.417-6.855 7.617v24.608l.002.064c-.002.053 0 .106.003.158.107 4.097 3.138 7.395 6.85 7.395h8.016zM20.84 28.173v9.38l-1.333 2.538V25.34l1.333 2.832zm13.146-1.46H30.54l4.468-4.965h1.319l-2.34 4.965zm-6.43 0h-3.138l4.469-4.965h3.137l-4.469 4.965zm-5.4-.801l-1.961-4.164h5.709l-3.748 4.164zm.794 3.144h10.62v7.642H22.95v-7.642zm12.73-.883l1.333-2.832v14.75L35.68 37.55v-9.38zM24.252 14.423h8.015c2.528 0 4.6 2.208 4.738 4.98H19.514c.138-2.772 2.21-4.98 4.739-4.98zm-4.73 30.286L22.5 39.04h11.518l2.212 4.21H26.89c-.582 0-1.055.524-1.055 1.171s.473 1.172 1.055 1.172h9.98c-.519 2.286-2.385 3.984-4.601 3.984h-8.015c-2.495 0-4.544-2.15-4.73-4.868z" fill="#FFBC2B"/><path d="M32.268 51.92c3.722 0 6.758-3.313 6.85-7.425.002-.036.004-.072.003-.108l.002-.083V19.696c0-4.2-3.076-7.617-6.855-7.617h-8.016c-3.78 0-6.855 3.417-6.855 7.617v24.608l.002.064c-.002.053 0 .106.003.158.107 4.097 3.138 7.395 6.85 7.395h8.016zM20.84 28.173v9.38l-1.333 2.538V25.34l1.333 2.832zm13.146-1.46H30.54l4.468-4.965h1.319l-2.34 4.965zm-6.43 0h-3.138l4.469-4.965h3.137l-4.469 4.965zm-5.4-.801l-1.961-4.164h5.709l-3.748 4.164zm.794 3.144h10.62v7.642H22.95v-7.642zm12.73-.883l1.333-2.832v14.75L35.68 37.55v-9.38zM24.252 14.423h8.015c2.528 0 4.6 2.208 4.738 4.98H19.514c.138-2.772 2.21-4.98 4.739-4.98zm-4.73 30.286L22.5 39.04h11.518l2.212 4.21H26.89c-.582 0-1.055.524-1.055 1.171s.473 1.172 1.055 1.172h9.98c-.519 2.286-2.385 3.984-4.601 3.984h-8.015c-2.495 0-4.544-2.15-4.73-4.868z" fill="url(#paint20_linear)" fill-opacity=".42" style="mix-blend-mode:overlay"/><path d="M22.67 43.25c-.277 0-.549.125-.745.343-.196.218-.31.52-.31.828 0 .308.114.61.31.828.196.218.468.344.746.344.277 0 .549-.125.745-.344.196-.217.31-.52.31-.828 0-.308-.114-.61-.31-.828a1.011 1.011 0 00-.745-.344z" fill="#FFBC2B"/><path d="M22.67 43.25c-.277 0-.549.125-.745.343-.196.218-.31.52-.31.828 0 .308.114.61.31.828.196.218.468.344.746.344.277 0 .549-.125.745-.344.196-.217.31-.52.31-.828 0-.308-.114-.61-.31-.828a1.011 1.011 0 00-.745-.344z" fill="url(#paint21_linear)" fill-opacity=".42" style="mix-blend-mode:overlay"/></g><g clip-path="url(#clip1)" fill="#2D2C2F"><path d="M1.055 13.595h11.811c.583 0 1.055-.525 1.055-1.172 0-.647-.472-1.172-1.055-1.172h-.588L7.919.685C7.747.27 7.373.002 6.961.002c-.413 0-.787.267-.96.683L1.644 11.251h-.588c-.583 0-1.055.525-1.055 1.172 0 .647.472 1.172 1.055 1.172zM6.96 3.986l.967 2.344H5.994l.966-2.344zM5.027 8.673h3.867l1.063 2.578H3.964l1.063-2.578zM41.134 13.595h11.811c.583 0 1.055-.525 1.055-1.172 0-.647-.472-1.172-1.055-1.172h-.588L47.998.685c-.171-.416-.546-.683-.959-.683-.412 0-.786.267-.958.683l-4.359 10.566h-.589c-.582 0-1.054.525-1.054 1.172 0 .647.472 1.172 1.055 1.172zm5.905-9.609l.967 2.344h-1.933l.966-2.344zm-1.933 4.687h3.867l1.063 2.578h-5.993l1.063-2.578zM12.866 57.655h-.588L7.919 47.089c-.172-.416-.546-.684-.959-.684-.412 0-.787.267-.958.684L1.643 57.655h-.588c-.583 0-1.055.524-1.055 1.172 0 .647.472 1.171 1.055 1.171h11.811c.583 0 1.055-.524 1.055-1.171 0-.648-.472-1.172-1.055-1.172zM6.961 50.39l.966 2.343H5.994l.966-2.343zm-2.997 7.265l1.063-2.578h3.867l1.063 2.578H3.964zM52.945 57.655h-.588l-4.359-10.566c-.172-.417-.546-.684-.959-.684-.412 0-.787.267-.958.684l-4.359 10.566h-.589c-.582 0-1.054.524-1.054 1.171 0 .648.472 1.172 1.054 1.172h11.812c.583 0 1.055-.524 1.055-1.172 0-.647-.472-1.171-1.055-1.171zM47.04 50.39l.967 2.343h-1.933l.966-2.343zm-2.996 7.265l1.063-2.578h3.867l1.063 2.578h-5.993zM14.448 7.033h1.582c.583 0 1.055-.525 1.055-1.172 0-.647-.472-1.172-1.055-1.172h-1.582c-.582 0-1.054.525-1.054 1.172 0 .647.472 1.172 1.054 1.172zM21.62 7.033h1.582c.582 0 1.054-.525 1.054-1.172 0-.647-.472-1.172-1.054-1.172H21.62c-.583 0-1.055.525-1.055 1.172 0 .647.472 1.172 1.055 1.172zM28.791 7.033h1.582c.582 0 1.055-.525 1.055-1.172 0-.647-.473-1.172-1.055-1.172h-1.582c-.582 0-1.055.525-1.055 1.172 0 .647.473 1.172 1.055 1.172zM37.544 4.69h-1.581c-.583 0-1.055.524-1.055 1.17 0 .648.472 1.173 1.055 1.173h1.581c.583 0 1.055-.525 1.055-1.172 0-.647-.472-1.172-1.054-1.172zM37.544 52.967h-1.581c-.583 0-1.055.525-1.055 1.172 0 .647.472 1.172 1.055 1.172h1.581c.583 0 1.055-.525 1.055-1.172 0-.647-.472-1.172-1.054-1.172zM30.373 52.967h-1.582c-.582 0-1.055.525-1.055 1.172 0 .647.473 1.172 1.055 1.172h1.582c.582 0 1.055-.525 1.055-1.172 0-.647-.473-1.172-1.055-1.172zM23.202 52.967H21.62c-.583 0-1.055.525-1.055 1.172 0 .647.472 1.172 1.055 1.172h1.582c.582 0 1.054-.525 1.054-1.172 0-.647-.472-1.172-1.054-1.172zM16.03 52.967h-1.582c-.582 0-1.054.525-1.054 1.172 0 .647.472 1.172 1.054 1.172h1.582c.583 0 1.055-.525 1.055-1.172 0-.647-.472-1.172-1.055-1.172zM48.301 17.11c0-.647-.472-1.172-1.054-1.172-.582 0-1.055.525-1.055 1.172v1.758c0 .647.473 1.172 1.055 1.172s1.054-.525 1.054-1.172V17.11zM48.301 25.078c0-.647-.472-1.171-1.054-1.171-.582 0-1.055.524-1.055 1.171v1.758c0 .647.473 1.172 1.055 1.172s1.054-.525 1.054-1.172v-1.758zM48.301 33.047c0-.647-.472-1.172-1.054-1.172-.582 0-1.055.525-1.055 1.172v1.758c0 .647.473 1.171 1.055 1.171s1.054-.524 1.054-1.172v-1.757zM47.247 39.843c-.582 0-1.055.525-1.055 1.172v1.758c0 .647.473 1.171 1.055 1.171s1.054-.524 1.054-1.171v-1.758c0-.647-.472-1.172-1.054-1.172zM6.75 39.843c-.583 0-1.055.525-1.055 1.172v1.758c0 .647.472 1.171 1.055 1.171.582 0 1.054-.524 1.054-1.171v-1.758c0-.647-.472-1.172-1.054-1.172zM7.804 17.11c0-.647-.472-1.172-1.054-1.172-.583 0-1.055.525-1.055 1.172v1.758c0 .647.472 1.172 1.055 1.172.582 0 1.054-.525 1.054-1.172V17.11zM7.804 25.078c0-.647-.472-1.171-1.054-1.171-.583 0-1.055.524-1.055 1.171v1.758c0 .647.472 1.172 1.055 1.172.582 0 1.054-.525 1.054-1.172v-1.758zM7.804 33.047c0-.647-.472-1.172-1.054-1.172-.583 0-1.055.525-1.055 1.172v1.758c0 .647.472 1.171 1.055 1.171.582 0 1.054-.524 1.054-1.172v-1.757zM30.268 49.92c3.722 0 6.758-3.313 6.85-7.425.002-.036.004-.072.003-.108l.002-.083V17.696c0-4.2-3.076-7.617-6.855-7.617h-8.016c-3.78 0-6.855 3.417-6.855 7.617v24.608l.002.064c-.002.053 0 .106.003.158.107 4.097 3.138 7.395 6.85 7.395h8.016zM18.84 26.173v9.38l-1.333 2.538V23.34l1.333 2.832zm13.146-1.46h-3.448l4.47-4.965h1.318l-2.34 4.965zm-6.43 0h-3.138l4.469-4.965h3.137l-4.469 4.965zm-5.4-.801l-1.961-4.164h5.709l-3.748 4.164zm.794 3.144h10.62v7.642H20.95v-7.642zm12.73-.883l1.333-2.832v14.75L33.68 35.55v-9.38zM22.252 12.423h8.015c2.528 0 4.6 2.208 4.738 4.98H17.514c.138-2.772 2.21-4.98 4.739-4.98zm-4.73 30.286L20.5 37.04h11.518l2.212 4.21H24.89c-.582 0-1.055.524-1.055 1.171s.473 1.172 1.055 1.172h9.98c-.519 2.286-2.385 3.984-4.601 3.984h-8.015c-2.495 0-4.544-2.15-4.73-4.868z"/><path d="M20.67 41.25c-.277 0-.549.125-.745.343-.196.218-.31.52-.31.828 0 .308.114.61.31.828.196.218.468.344.746.344.277 0 .549-.125.745-.344.196-.217.31-.52.31-.828 0-.308-.114-.61-.31-.828a1.011 1.011 0 00-.745-.344z"/></g><defs><linearGradient id="paint0_linear" x1="8.96" y1="2.002" x2="8.96" y2="15.595" gradientUnits="userSpaceOnUse"><stop stop-color="#fff"/><stop offset="1"/></linearGradient><linearGradient id="paint1_linear" x1="49.039" y1="2.002" x2="49.039" y2="15.595" gradientUnits="userSpaceOnUse"><stop stop-color="#fff"/><stop offset="1"/></linearGradient><linearGradient id="paint2_linear" x1="8.96" y1="48.405" x2="8.96" y2="61.998" gradientUnits="userSpaceOnUse"><stop stop-color="#fff"/><stop offset="1"/></linearGradient><linearGradient id="paint3_linear" x1="49.039" y1="48.405" x2="49.039" y2="61.998" gradientUnits="userSpaceOnUse"><stop stop-color="#fff"/><stop offset="1"/></linearGradient><linearGradient id="paint4_linear" x1="17.239" y1="6.689" x2="17.239" y2="9.033" gradientUnits="userSpaceOnUse"><stop stop-color="#fff"/><stop offset="1"/></linearGradient><linearGradient id="paint5_linear" x1="24.411" y1="6.689" x2="24.411" y2="9.033" gradientUnits="userSpaceOnUse"><stop stop-color="#fff"/><stop offset="1"/></linearGradient><linearGradient id="paint6_linear" x1="31.582" y1="6.689" x2="31.582" y2="9.033" gradientUnits="userSpaceOnUse"><stop stop-color="#fff"/><stop offset="1"/></linearGradient><linearGradient id="paint7_linear" x1="38.754" y1="6.689" x2="38.754" y2="9.033" gradientUnits="userSpaceOnUse"><stop stop-color="#fff"/><stop offset="1"/></linearGradient><linearGradient id="paint8_linear" x1="38.754" y1="54.967" x2="38.754" y2="57.311" gradientUnits="userSpaceOnUse"><stop stop-color="#fff"/><stop offset="1"/></linearGradient><linearGradient id="paint9_linear" x1="31.582" y1="54.967" x2="31.582" y2="57.311" gradientUnits="userSpaceOnUse"><stop stop-color="#fff"/><stop offset="1"/></linearGradient><linearGradient id="paint10_linear" x1="24.411" y1="54.967" x2="24.411" y2="57.311" gradientUnits="userSpaceOnUse"><stop stop-color="#fff"/><stop offset="1"/></linearGradient><linearGradient id="paint11_linear" x1="17.239" y1="54.967" x2="17.239" y2="57.311" gradientUnits="userSpaceOnUse"><stop stop-color="#fff"/><stop offset="1"/></linearGradient><linearGradient id="paint12_linear" x1="49.247" y1="17.938" x2="49.247" y2="22.04" gradientUnits="userSpaceOnUse"><stop stop-color="#fff"/><stop offset="1"/></linearGradient><linearGradient id="paint13_linear" x1="49.247" y1="25.907" x2="49.247" y2="30.008" gradientUnits="userSpaceOnUse"><stop stop-color="#fff"/><stop offset="1"/></linearGradient><linearGradient id="paint14_linear" x1="49.247" y1="33.875" x2="49.247" y2="37.976" gradientUnits="userSpaceOnUse"><stop stop-color="#fff"/><stop offset="1"/></linearGradient><linearGradient id="paint15_linear" x1="49.247" y1="41.843" x2="49.247" y2="45.944" gradientUnits="userSpaceOnUse"><stop stop-color="#fff"/><stop offset="1"/></linearGradient><linearGradient id="paint16_linear" x1="8.75" y1="41.843" x2="8.75" y2="45.944" gradientUnits="userSpaceOnUse"><stop stop-color="#fff"/><stop offset="1"/></linearGradient><linearGradient id="paint17_linear" x1="8.75" y1="17.938" x2="8.75" y2="22.04" gradientUnits="userSpaceOnUse"><stop stop-color="#fff"/><stop offset="1"/></linearGradient><linearGradient id="paint18_linear" x1="8.75" y1="25.907" x2="8.75" y2="30.008" gradientUnits="userSpaceOnUse"><stop stop-color="#fff"/><stop offset="1"/></linearGradient><linearGradient id="paint19_linear" x1="8.75" y1="33.875" x2="8.75" y2="37.976" gradientUnits="userSpaceOnUse"><stop stop-color="#fff"/><stop offset="1"/></linearGradient><linearGradient id="paint20_linear" x1="28.26" y1="12.079" x2="28.26" y2="51.921" gradientUnits="userSpaceOnUse"><stop stop-color="#fff"/><stop offset="1"/></linearGradient><linearGradient id="paint21_linear" x1="22.671" y1="43.249" x2="22.671" y2="45.593" gradientUnits="userSpaceOnUse"><stop stop-color="#fff"/><stop offset="1"/></linearGradient><clipPath id="clip0"><path fill="#fff" transform="translate(2 2)" d="M0 0h54v60H0z"/></clipPath><clipPath id="clip1"><path fill="#fff" d="M0 0h54v60H0z"/></clipPath></defs></svg>