<svg width="62" height="61" viewBox="0 0 62 61" fill="none" xmlns="http://www.w3.org/2000/svg"><g clip-path="url(#clip0)"><path d="M21.072 14.956H44.4c.583 0 1.06-.477 1.06-1.06 0-.583-.477-1.06-1.06-1.06H21.072c-.583 0-1.06.477-1.06 1.06 0 .583.477 1.06 1.06 1.06z" fill="#FFBC2B"/><path d="M21.072 14.956H44.4c.583 0 1.06-.477 1.06-1.06 0-.583-.477-1.06-1.06-1.06H21.072c-.583 0-1.06.477-1.06 1.06 0 .583.477 1.06 1.06 1.06z" fill="url(#paint0_linear)" fill-opacity=".42" style="mix-blend-mode:overlay"/><path d="M21.072 21.318H44.4c.583 0 1.06-.477 1.06-1.06 0-.583-.477-1.06-1.06-1.06H21.072c-.583 0-1.06.477-1.06 1.06 0 .583.477 1.06 1.06 1.06z" fill="#FFBC2B"/><path d="M21.072 21.318H44.4c.583 0 1.06-.477 1.06-1.06 0-.583-.477-1.06-1.06-1.06H21.072c-.583 0-1.06.477-1.06 1.06 0 .583.477 1.06 1.06 1.06z" fill="url(#paint1_linear)" fill-opacity=".42" style="mix-blend-mode:overlay"/><path d="M21.072 27.68H44.4c.583 0 1.06-.477 1.06-1.06 0-.584-.477-1.06-1.06-1.06H21.072c-.583 0-1.06.477-1.06 1.06 0 .583.477 1.06 1.06 1.06z" fill="#FFBC2B"/><path d="M21.072 27.68H44.4c.583 0 1.06-.477 1.06-1.06 0-.584-.477-1.06-1.06-1.06H21.072c-.583 0-1.06.477-1.06 1.06 0 .583.477 1.06 1.06 1.06z" fill="url(#paint2_linear)" fill-opacity=".42" style="mix-blend-mode:overlay"/><path d="M21.072 34.042H44.4c.583 0 1.06-.477 1.06-1.06 0-.584-.477-1.06-1.06-1.06H21.072c-.583 0-1.06.476-1.06 1.06 0 .583.477 1.06 1.06 1.06z" fill="#FFBC2B"/><path d="M21.072 34.042H44.4c.583 0 1.06-.477 1.06-1.06 0-.584-.477-1.06-1.06-1.06H21.072c-.583 0-1.06.476-1.06 1.06 0 .583.477 1.06 1.06 1.06z" fill="url(#paint3_linear)" fill-opacity=".42" style="mix-blend-mode:overlay"/><path d="M29.555 38.283h-8.483c-.583 0-1.06.477-1.06 1.06 0 .583.477 1.06 1.06 1.06h8.483c.583 0 1.06-.477 1.06-1.06 0-.583-.477-1.06-1.06-1.06z" fill="#FFBC2B"/><path d="M29.555 38.283h-8.483c-.583 0-1.06.477-1.06 1.06 0 .583.477 1.06 1.06 1.06h8.483c.583 0 1.06-.477 1.06-1.06 0-.583-.477-1.06-1.06-1.06z" fill="url(#paint4_linear)" fill-opacity=".42" style="mix-blend-mode:overlay"/><path d="M45.248 50.612a2.16 2.16 0 10-3.056-3.056 2.16 2.16 0 003.056 3.056z" fill="#FFBC2B"/><path d="M45.248 50.612a2.16 2.16 0 10-3.056-3.056 2.16 2.16 0 003.056 3.056z" fill="url(#paint5_linear)" fill-opacity=".42" style="mix-blend-mode:overlay"/><path d="M53.504 47.52c-2.04-.742-5.831-1.881-9.794-1.881s-7.74 1.14-9.795 1.882a9.694 9.694 0 00.027 3.273l2.624-.702a4.295 4.295 0 013.737.755 4.307 4.307 0 011.684 3.42v4.586a10.03 10.03 0 003.446 0v-4.586c0-1.339.623-2.598 1.683-3.42a4.29 4.29 0 013.738-.742l2.624.703c.199-1.1.212-2.2.026-3.287zm-9.781 4.586a3.02 3.02 0 01-3.022-3.021 3.02 3.02 0 013.022-3.022 3.02 3.02 0 013.022 3.022 3.02 3.02 0 01-3.022 3.021z" fill="#FFBC2B"/><path d="M53.504 47.52c-2.04-.742-5.831-1.881-9.794-1.881s-7.74 1.14-9.795 1.882a9.694 9.694 0 00.027 3.273l2.624-.702a4.295 4.295 0 013.737.755 4.307 4.307 0 011.684 3.42v4.586a10.03 10.03 0 003.446 0v-4.586c0-1.339.623-2.598 1.683-3.42a4.29 4.29 0 013.738-.742l2.624.703c.199-1.1.212-2.2.026-3.287zm-9.781 4.586a3.02 3.02 0 01-3.022-3.021 3.02 3.02 0 013.022-3.022 3.02 3.02 0 013.022 3.022 3.02 3.02 0 01-3.022 3.021z" fill="url(#paint6_linear)" fill-opacity=".42" style="mix-blend-mode:overlay"/><path d="M51.543 39.873l-.04-30.695c0-.04 0-.146-.027-.239a.809.809 0 00-.145-.212c-.822-.835-7.568-7.608-7.688-7.502a1.203 1.203 0 00-.304-.04h-30.75a1.07 1.07 0 00-1.073 1.074V5.573a4.247 4.247 0 00-3.048 5.168 4.23 4.23 0 003.048 3.049v2.399a4.247 4.247 0 00-3.048 5.169 4.23 4.23 0 003.048 3.048V26.805a4.247 4.247 0 00-3.048 5.17 4.23 4.23 0 003.048 3.047v1.339a4.247 4.247 0 00-3.048 5.17 4.23 4.23 0 003.048 3.047V51.072a1.07 1.07 0 001.074 1.075h3.167s15.11 0 16.157-.014c1.378 5.156 6.07 8.96 11.663 8.96 6.667 0 12.074-5.408 12.074-12.074.013-3.685-1.577-6.932-4.108-9.146zM11.529 42.22c0 .014-.013.014-.013.014a2.12 2.12 0 010-3.658s.013 0 .013.013v3.631zm0-9.542c0 .013-.013.013-.013.013a2.12 2.12 0 010-3.658s.013 0 .013.013v3.632zm0-10.603c0 .013-.013.013-.013.013a2.12 2.12 0 010-3.658s.013 0 .013.013v3.632zm0-10.604c0 .014-.013.014-.013.014a2.12 2.12 0 010-3.658s.013 0 .013.013v3.631zM44.4 4.817c0-.013.013-.013.013 0l3.777 3.777v.014h-3.777s-.013 0-.013-.014V4.817zm-30.75 45.13l-.012-5.435V44.5a4.22 4.22 0 003.021-2.982c.146-.544-.119-1.14-.649-1.326a1.067 1.067 0 00-1.392.73 2.149 2.149 0 01-.98 1.298s-.014 0-.014-.013v-7.263a4.22 4.22 0 003.022-2.982c.146-.543-.119-1.14-.65-1.325a1.068 1.068 0 00-1.39.729 2.149 2.149 0 01-.982 1.298s-.013 0-.013-.013v-8.323a4.22 4.22 0 003.022-2.982c.146-.544-.12-1.14-.65-1.326a1.067 1.067 0 00-1.391.73 2.149 2.149 0 01-.98 1.298s-.014 0-.014-.013V13.763a4.22 4.22 0 003.022-2.982c.146-.543-.12-1.14-.65-1.325a1.067 1.067 0 00-1.391.729 2.15 2.15 0 01-.981 1.299s-.013 0-.013-.014V3.306s0-.013.013-.013h28.615s.013 0 .013.013v6.349a1.07 1.07 0 001.074 1.073h6.348s.014 0 .014.014v27.82a12.081 12.081 0 00-6.11-1.657c-6.667 0-12.075 5.407-12.075 12.074 0 .331.014.676.04 1.007-2.783-.04-17.866-.04-17.866-.04zm29.941 9.516c-5.95 0-10.51-4.56-10.51-10.51 0-5.952 4.56-10.511 10.51-10.511 5.951 0 10.51 4.56 10.51 10.51 0 5.951-4.559 10.51-10.51 10.51z" fill="#FFBC2B"/><path d="M51.543 39.873l-.04-30.695c0-.04 0-.146-.027-.239a.809.809 0 00-.145-.212c-.822-.835-7.568-7.608-7.688-7.502a1.203 1.203 0 00-.304-.04h-30.75a1.07 1.07 0 00-1.073 1.074V5.573a4.247 4.247 0 00-3.048 5.168 4.23 4.23 0 003.048 3.049v2.399a4.247 4.247 0 00-3.048 5.169 4.23 4.23 0 003.048 3.048V26.805a4.247 4.247 0 00-3.048 5.17 4.23 4.23 0 003.048 3.047v1.339a4.247 4.247 0 00-3.048 5.17 4.23 4.23 0 003.048 3.047V51.072a1.07 1.07 0 001.074 1.075h3.167s15.11 0 16.157-.014c1.378 5.156 6.07 8.96 11.663 8.96 6.667 0 12.074-5.408 12.074-12.074.013-3.685-1.577-6.932-4.108-9.146zM11.529 42.22c0 .014-.013.014-.013.014a2.12 2.12 0 010-3.658s.013 0 .013.013v3.631zm0-9.542c0 .013-.013.013-.013.013a2.12 2.12 0 010-3.658s.013 0 .013.013v3.632zm0-10.603c0 .013-.013.013-.013.013a2.12 2.12 0 010-3.658s.013 0 .013.013v3.632zm0-10.604c0 .014-.013.014-.013.014a2.12 2.12 0 010-3.658s.013 0 .013.013v3.631zM44.4 4.817c0-.013.013-.013.013 0l3.777 3.777v.014h-3.777s-.013 0-.013-.014V4.817zm-30.75 45.13l-.012-5.435V44.5a4.22 4.22 0 003.021-2.982c.146-.544-.119-1.14-.649-1.326a1.067 1.067 0 00-1.392.73 2.149 2.149 0 01-.98 1.298s-.014 0-.014-.013v-7.263a4.22 4.22 0 003.022-2.982c.146-.543-.119-1.14-.65-1.325a1.068 1.068 0 00-1.39.729 2.149 2.149 0 01-.982 1.298s-.013 0-.013-.013v-8.323a4.22 4.22 0 003.022-2.982c.146-.544-.12-1.14-.65-1.326a1.067 1.067 0 00-1.391.73 2.149 2.149 0 01-.98 1.298s-.014 0-.014-.013V13.763a4.22 4.22 0 003.022-2.982c.146-.543-.12-1.14-.65-1.325a1.067 1.067 0 00-1.391.729 2.15 2.15 0 01-.981 1.299s-.013 0-.013-.014V3.306s0-.013.013-.013h28.615s.013 0 .013.013v6.349a1.07 1.07 0 001.074 1.073h6.348s.014 0 .014.014v27.82a12.081 12.081 0 00-6.11-1.657c-6.667 0-12.075 5.407-12.075 12.074 0 .331.014.676.04 1.007-2.783-.04-17.866-.04-17.866-.04zm29.941 9.516c-5.95 0-10.51-4.56-10.51-10.51 0-5.952 4.56-10.511 10.51-10.511 5.951 0 10.51 4.56 10.51 10.51 0 5.951-4.559 10.51-10.51 10.51z" fill="url(#paint7_linear)" fill-opacity=".42" style="mix-blend-mode:overlay"/></g><g clip-path="url(#clip1)" fill="#2D2C2F"><path d="M19.072 13.956H42.4c.583 0 1.06-.477 1.06-1.06 0-.583-.477-1.06-1.06-1.06H19.072c-.583 0-1.06.477-1.06 1.06 0 .583.477 1.06 1.06 1.06zM19.072 20.318H42.4c.583 0 1.06-.477 1.06-1.06 0-.583-.477-1.06-1.06-1.06H19.072c-.583 0-1.06.477-1.06 1.06 0 .583.477 1.06 1.06 1.06zM19.072 26.68H42.4c.583 0 1.06-.477 1.06-1.06 0-.584-.477-1.06-1.06-1.06H19.072c-.583 0-1.06.477-1.06 1.06 0 .583.477 1.06 1.06 1.06zM19.072 33.042H42.4c.583 0 1.06-.477 1.06-1.06 0-.584-.477-1.06-1.06-1.06H19.072c-.583 0-1.06.476-1.06 1.06 0 .583.477 1.06 1.06 1.06zM27.555 37.283h-8.483c-.583 0-1.06.477-1.06 1.06 0 .583.477 1.06 1.06 1.06h8.483c.583 0 1.06-.477 1.06-1.06 0-.583-.477-1.06-1.06-1.06zM43.248 49.612a2.16 2.16 0 10-3.056-3.056 2.16 2.16 0 003.056 3.056z"/><path d="M51.504 46.52c-2.04-.742-5.831-1.881-9.794-1.881s-7.74 1.14-9.795 1.882a9.694 9.694 0 00.027 3.273l2.624-.702a4.295 4.295 0 013.737.755 4.307 4.307 0 011.684 3.42v4.586a10.03 10.03 0 003.446 0v-4.586c0-1.339.623-2.598 1.683-3.42a4.29 4.29 0 013.738-.742l2.624.703c.199-1.1.212-2.2.026-3.287zm-9.781 4.586a3.02 3.02 0 01-3.022-3.021 3.02 3.02 0 013.022-3.022 3.02 3.02 0 013.022 3.022 3.02 3.02 0 01-3.022 3.021z"/><path d="M49.543 38.873l-.04-30.695c0-.04 0-.146-.027-.239a.809.809 0 00-.145-.212c-.822-.835-7.568-7.608-7.688-7.502a1.203 1.203 0 00-.304-.04h-30.75A1.07 1.07 0 009.517 1.26V4.573a4.247 4.247 0 00-3.048 5.169 4.23 4.23 0 003.048 3.048v2.399a4.247 4.247 0 00-3.048 5.169 4.23 4.23 0 003.048 3.048V25.805a4.247 4.247 0 00-3.048 5.17 4.23 4.23 0 003.048 3.047v1.339a4.247 4.247 0 00-3.048 5.17 4.23 4.23 0 003.048 3.047V50.072a1.07 1.07 0 001.074 1.075h3.167s15.11 0 16.157-.014c1.378 5.156 6.07 8.96 11.663 8.96 6.667 0 12.074-5.408 12.074-12.074.013-3.685-1.577-6.932-4.108-9.146zM9.529 41.22c0 .014-.013.014-.013.014a2.12 2.12 0 010-3.658s.013 0 .013.013v3.631zm0-9.542c0 .013-.013.013-.013.013a2.12 2.12 0 010-3.658s.013 0 .013.013v3.632zm0-10.603c0 .013-.013.013-.013.013a2.12 2.12 0 010-3.658s.013 0 .013.013v3.632zm0-10.604c0 .014-.013.014-.013.014a2.12 2.12 0 010-3.658s.013 0 .013.013v3.631zM42.4 3.817c0-.013.013-.013.013 0l3.777 3.777v.014h-3.777s-.013 0-.013-.014V3.817zm-30.75 45.13l-.012-5.435V43.5a4.22 4.22 0 003.021-2.982c.146-.544-.119-1.14-.649-1.326a1.067 1.067 0 00-1.392.73 2.149 2.149 0 01-.98 1.298s-.014 0-.014-.013v-7.263a4.22 4.22 0 003.022-2.982c.146-.543-.119-1.14-.65-1.325a1.068 1.068 0 00-1.39.729 2.149 2.149 0 01-.982 1.298s-.013 0-.013-.013v-8.323a4.22 4.22 0 003.022-2.982c.146-.544-.12-1.14-.65-1.326a1.067 1.067 0 00-1.391.73 2.149 2.149 0 01-.98 1.298s-.014 0-.014-.013V12.763a4.22 4.22 0 003.022-2.982c.146-.543-.12-1.14-.65-1.325a1.067 1.067 0 00-1.391.729 2.15 2.15 0 01-.981 1.299s-.013 0-.013-.014V2.306s0-.013.013-.013h28.615s.013 0 .013.013v6.349A1.07 1.07 0 0041.3 9.728h6.348s.014 0 .014.014v27.82a12.081 12.081 0 00-6.11-1.657c-6.667 0-12.075 5.407-12.075 12.074 0 .331.014.676.04 1.007-2.783-.04-17.866-.04-17.866-.04zm29.941 9.516c-5.95 0-10.51-4.56-10.51-10.51 0-5.952 4.56-10.511 10.51-10.511 5.951 0 10.51 4.56 10.51 10.51 0 5.951-4.559 10.51-10.51 10.51z"/></g><defs><linearGradient id="paint0_linear" x1="32.735" y1="12.835" x2="32.735" y2="14.956" gradientUnits="userSpaceOnUse"><stop stop-color="#fff"/><stop offset="1"/></linearGradient><linearGradient id="paint1_linear" x1="32.735" y1="19.198" x2="32.735" y2="21.318" gradientUnits="userSpaceOnUse"><stop stop-color="#fff"/><stop offset="1"/></linearGradient><linearGradient id="paint2_linear" x1="32.735" y1="25.559" x2="32.735" y2="27.68" gradientUnits="userSpaceOnUse"><stop stop-color="#fff"/><stop offset="1"/></linearGradient><linearGradient id="paint3_linear" x1="32.735" y1="31.921" x2="32.735" y2="34.042" gradientUnits="userSpaceOnUse"><stop stop-color="#fff"/><stop offset="1"/></linearGradient><linearGradient id="paint4_linear" x1="25.313" y1="38.283" x2="25.313" y2="40.404" gradientUnits="userSpaceOnUse"><stop stop-color="#fff"/><stop offset="1"/></linearGradient><linearGradient id="paint5_linear" x1="42.193" y1="47.556" x2="45.248" y2="50.612" gradientUnits="userSpaceOnUse"><stop stop-color="#fff"/><stop offset="1"/></linearGradient><linearGradient id="paint6_linear" x1="43.712" y1="45.639" x2="43.712" y2="59.002" gradientUnits="userSpaceOnUse"><stop stop-color="#fff"/><stop offset="1"/></linearGradient><linearGradient id="paint7_linear" x1="31.992" y1="1.186" x2="31.992" y2="61.093" gradientUnits="userSpaceOnUse"><stop stop-color="#fff"/><stop offset="1"/></linearGradient><clipPath id="clip0"><path fill="#fff" transform="translate(2 1)" d="M0 0h60v60H0z"/></clipPath><clipPath id="clip1"><path fill="#fff" d="M0 0h60v60H0z"/></clipPath></defs></svg>