<svg width="56" height="62" viewBox="0 0 56 62" fill="none" xmlns="http://www.w3.org/2000/svg"><g clip-path="url(#clip0)"><path d="M42.5 62c-.225 0-.45-.05-.662-.15C41.316 61.602 29 55.642 29 43.385V33.34c0-.803.459-1.515 1.145-1.775L41.958 27.1a1.53 1.53 0 011.084 0l11.813 4.465c.686.26 1.145.973 1.145 1.775v10.045c0 12.257-12.317 18.217-12.839 18.467A1.579 1.579 0 0142.5 62zM32.375 34.682v8.7c0 8.333 7.776 13.343 10.125 14.663 2.349-1.32 10.125-6.33 10.125-14.663v-8.7L42.5 30.855l-10.125 3.827z" fill="#FFBC2B"/><path d="M42.5 62c-.225 0-.45-.05-.662-.15C41.316 61.602 29 55.642 29 43.385V33.34c0-.803.459-1.515 1.145-1.775L41.958 27.1a1.53 1.53 0 011.084 0l11.813 4.465c.686.26 1.145.973 1.145 1.775v10.045c0 12.257-12.317 18.217-12.839 18.467A1.579 1.579 0 0142.5 62zM32.375 34.682v8.7c0 8.333 7.776 13.343 10.125 14.663 2.349-1.32 10.125-6.33 10.125-14.663v-8.7L42.5 30.855l-10.125 3.827z" fill="url(#paint0_linear)" fill-opacity=".42" style="mix-blend-mode:overlay"/><path d="M41.937 50.75c-.445 0-.877-.195-1.192-.55l-4.5-5c-.66-.733-.66-1.92 0-2.653.66-.732 1.728-.732 2.387 0l3.125 3.473 5.58-8.27c.554-.828 1.616-.998 2.363-.373.744.62.895 1.795.335 2.625l-6.75 10c-.292.435-.74.705-1.23.745-.039 0-.077.003-.118.003z" fill="#FFBC2B"/><path d="M41.937 50.75c-.445 0-.877-.195-1.192-.55l-4.5-5c-.66-.733-.66-1.92 0-2.653.66-.732 1.728-.732 2.387 0l3.125 3.473 5.58-8.27c.554-.828 1.616-.998 2.363-.373.744.62.895 1.795.335 2.625l-6.75 10c-.292.435-.74.705-1.23.745-.039 0-.077.003-.118.003z" fill="url(#paint1_linear)" fill-opacity=".42" style="mix-blend-mode:overlay"/><path d="M25.828 54.5H8.188C4.773 54.5 2 51.417 2 47.625V8.875C2 5.082 4.774 2 8.187 2h25.875c3.414 0 6.188 3.082 6.188 6.875V22.45c0 1.035-.756 1.875-1.688 1.875-.931 0-1.687-.84-1.687-1.875V8.875c0-1.723-1.262-3.125-2.813-3.125H8.187c-1.55 0-2.812 1.402-2.812 3.125v38.75c0 1.722 1.262 3.125 2.812 3.125h17.64c.932 0 1.688.84 1.688 1.875 0 1.035-.756 1.875-1.688 1.875z" fill="#FFBC2B"/><path d="M25.828 54.5H8.188C4.773 54.5 2 51.417 2 47.625V8.875C2 5.082 4.774 2 8.187 2h25.875c3.414 0 6.188 3.082 6.188 6.875V22.45c0 1.035-.756 1.875-1.688 1.875-.931 0-1.687-.84-1.687-1.875V8.875c0-1.723-1.262-3.125-2.813-3.125H8.187c-1.55 0-2.812 1.402-2.812 3.125v38.75c0 1.722 1.262 3.125 2.812 3.125h17.64c.932 0 1.688.84 1.688 1.875 0 1.035-.756 1.875-1.688 1.875z" fill="url(#paint2_linear)" fill-opacity=".42" style="mix-blend-mode:overlay"/><path d="M31.812 25.75H10.437c-.931 0-1.687-.84-1.687-1.875 0-1.035.756-1.875 1.688-1.875h21.374c.932 0 1.688.84 1.688 1.875 0 1.035-.756 1.875-1.688 1.875z" fill="#FFBC2B"/><path d="M31.812 25.75H10.437c-.931 0-1.687-.84-1.687-1.875 0-1.035.756-1.875 1.688-1.875h21.374c.932 0 1.688.84 1.688 1.875 0 1.035-.756 1.875-1.688 1.875z" fill="url(#paint3_linear)" fill-opacity=".42" style="mix-blend-mode:overlay"/><path d="M22.813 35.75H10.438c-.932 0-1.688-.84-1.688-1.875 0-1.035.756-1.875 1.688-1.875h12.374c.932 0 1.688.84 1.688 1.875 0 1.035-.756 1.875-1.688 1.875z" fill="#FFBC2B"/><path d="M22.813 35.75H10.438c-.932 0-1.688-.84-1.688-1.875 0-1.035.756-1.875 1.688-1.875h12.374c.932 0 1.688.84 1.688 1.875 0 1.035-.756 1.875-1.688 1.875z" fill="url(#paint4_linear)" fill-opacity=".42" style="mix-blend-mode:overlay"/><path d="M20.563 15.75H10.438c-.932 0-1.688-.84-1.688-1.875 0-1.035.756-1.875 1.688-1.875h10.124c.932 0 1.688.84 1.688 1.875 0 1.035-.756 1.875-1.688 1.875z" fill="#FFBC2B"/><path d="M20.563 15.75H10.438c-.932 0-1.688-.84-1.688-1.875 0-1.035.756-1.875 1.688-1.875h10.124c.932 0 1.688.84 1.688 1.875 0 1.035-.756 1.875-1.688 1.875z" fill="url(#paint5_linear)" fill-opacity=".42" style="mix-blend-mode:overlay"/></g><g clip-path="url(#clip1)" fill="#2D2C2F"><path d="M40.5 60c-.225 0-.45-.05-.662-.15C39.316 59.602 27 53.642 27 41.385V31.34c0-.802.459-1.515 1.145-1.775L39.958 25.1a1.53 1.53 0 011.084 0l11.813 4.465c.686.26 1.145.973 1.145 1.775v10.045c0 12.257-12.317 18.217-12.839 18.467A1.579 1.579 0 0140.5 60zM30.375 32.682v8.7c0 8.333 7.776 13.343 10.125 14.663 2.349-1.32 10.125-6.33 10.125-14.663v-8.7L40.5 28.855l-10.125 3.827z"/><path d="M39.937 48.75c-.445 0-.877-.195-1.192-.55l-4.5-5c-.66-.733-.66-1.92 0-2.653.66-.732 1.728-.732 2.387 0l3.125 3.473 5.58-8.27c.554-.828 1.616-.998 2.363-.373.745.62.895 1.795.335 2.625l-6.75 10c-.292.435-.74.705-1.23.745-.039 0-.077.003-.118.003zM23.828 52.5H6.188C2.773 52.5 0 49.417 0 45.625V6.875C0 3.083 2.774 0 6.187 0h25.875c3.414 0 6.188 3.083 6.188 6.875V20.45c0 1.035-.756 1.875-1.688 1.875-.931 0-1.687-.84-1.687-1.875V6.875c0-1.723-1.262-3.125-2.813-3.125H6.187c-1.55 0-2.812 1.402-2.812 3.125v38.75c0 1.722 1.262 3.125 2.812 3.125h17.64c.932 0 1.688.84 1.688 1.875 0 1.035-.756 1.875-1.688 1.875z"/><path d="M29.812 23.75H8.437c-.931 0-1.687-.84-1.687-1.875C6.75 20.84 7.506 20 8.437 20h21.375c.932 0 1.688.84 1.688 1.875 0 1.035-.756 1.875-1.688 1.875zM20.812 33.75H8.437c-.931 0-1.687-.84-1.687-1.875C6.75 30.84 7.506 30 8.437 30h12.375c.932 0 1.688.84 1.688 1.875 0 1.035-.756 1.875-1.688 1.875zM18.562 13.75H8.437c-.931 0-1.687-.84-1.687-1.875C6.75 10.84 7.506 10 8.437 10h10.125c.932 0 1.688.84 1.688 1.875 0 1.035-.756 1.875-1.688 1.875z"/></g><defs><linearGradient id="paint0_linear" x1="42.5" y1="27.001" x2="42.5" y2="62" gradientUnits="userSpaceOnUse"><stop stop-color="#fff"/><stop offset="1"/></linearGradient><linearGradient id="paint1_linear" x1="43.062" y1="37" x2="43.062" y2="50.75" gradientUnits="userSpaceOnUse"><stop stop-color="#fff"/><stop offset="1"/></linearGradient><linearGradient id="paint2_linear" x1="21.125" y1="2" x2="21.125" y2="54.5" gradientUnits="userSpaceOnUse"><stop stop-color="#fff"/><stop offset="1"/></linearGradient><linearGradient id="paint3_linear" x1="21.125" y1="22" x2="21.125" y2="25.75" gradientUnits="userSpaceOnUse"><stop stop-color="#fff"/><stop offset="1"/></linearGradient><linearGradient id="paint4_linear" x1="16.625" y1="32" x2="16.625" y2="35.75" gradientUnits="userSpaceOnUse"><stop stop-color="#fff"/><stop offset="1"/></linearGradient><linearGradient id="paint5_linear" x1="15.5" y1="12" x2="15.5" y2="15.75" gradientUnits="userSpaceOnUse"><stop stop-color="#fff"/><stop offset="1"/></linearGradient><clipPath id="clip0"><path fill="#fff" transform="translate(2 2)" d="M0 0h54v60H0z"/></clipPath><clipPath id="clip1"><path fill="#fff" d="M0 0h54v60H0z"/></clipPath></defs></svg>