<svg width="62" height="61" viewBox="0 0 62 61" fill="none" xmlns="http://www.w3.org/2000/svg"><g clip-path="url(#clip0)"><path d="M56.809 10.844H7.19A5.201 5.201 0 002 16.035v29.906a5.201 5.201 0 005.191 5.192h49.63a5.201 5.201 0 005.19-5.192V16.035c-.011-2.86-2.343-5.191-5.202-5.191zm3.41 35.086a3.4 3.4 0 01-3.399 3.398H7.191a3.4 3.4 0 01-3.398-3.398V16.035a3.4 3.4 0 013.398-3.398h49.63a3.401 3.401 0 013.398 3.398V45.93z" fill="#FFBC2B"/><path d="M56.809 10.844H7.19A5.201 5.201 0 002 16.035v29.906a5.201 5.201 0 005.191 5.192h49.63a5.201 5.201 0 005.19-5.192V16.035c-.011-2.86-2.343-5.191-5.202-5.191zm3.41 35.086a3.4 3.4 0 01-3.399 3.398H7.191a3.4 3.4 0 01-3.398-3.398V16.035a3.4 3.4 0 013.398-3.398h49.63a3.401 3.401 0 013.398 3.398V45.93z" fill="url(#paint0_linear)" fill-opacity=".42" style="mix-blend-mode:overlay"/><path d="M28.672 17.969H8a.89.89 0 00-.89.89v23.52c0 .492.398.89.89.89h20.672a.89.89 0 00.89-.89v-23.52a.89.89 0 00-.89-.89zm-.89 23.531H8.89V19.75h18.89V41.5z" fill="#FFBC2B"/><path d="M28.672 17.969H8a.89.89 0 00-.89.89v23.52c0 .492.398.89.89.89h20.672a.89.89 0 00.89-.89v-23.52a.89.89 0 00-.89-.89zm-.89 23.531H8.89V19.75h18.89V41.5z" fill="url(#paint1_linear)" fill-opacity=".42" style="mix-blend-mode:overlay"/><path d="M56.234 20.043H33.898a.89.89 0 100 1.781h22.336a.89.89 0 100-1.781z" fill="#FFBC2B"/><path d="M56.234 20.043H33.898a.89.89 0 100 1.781h22.336a.89.89 0 100-1.781z" fill="url(#paint2_linear)" fill-opacity=".42" style="mix-blend-mode:overlay"/><path d="M56.234 26.5h-4.992a.89.89 0 100 1.781h4.992a.89.89 0 100-1.781z" fill="#FFBC2B"/><path d="M56.234 26.5h-4.992a.89.89 0 100 1.781h4.992a.89.89 0 100-1.781z" fill="url(#paint3_linear)" fill-opacity=".42" style="mix-blend-mode:overlay"/><path d="M33.898 28.281H47.68a.89.89 0 100-1.781H33.898a.89.89 0 100 1.781z" fill="#FFBC2B"/><path d="M33.898 28.281H47.68a.89.89 0 100-1.781H33.898a.89.89 0 100 1.781z" fill="url(#paint4_linear)" fill-opacity=".42" style="mix-blend-mode:overlay"/><path d="M56.234 32.969H33.898a.89.89 0 100 1.781h22.336a.89.89 0 100-1.781z" fill="#FFBC2B"/><path d="M56.234 32.969H33.898a.89.89 0 100 1.781h22.336a.89.89 0 100-1.781z" fill="url(#paint5_linear)" fill-opacity=".42" style="mix-blend-mode:overlay"/><path d="M46.016 39.426H33.898a.89.89 0 100 1.781h12.118a.89.89 0 100-1.781z" fill="#FFBC2B"/><path d="M46.016 39.426H33.898a.89.89 0 100 1.781h12.118a.89.89 0 100-1.781z" fill="url(#paint6_linear)" fill-opacity=".42" style="mix-blend-mode:overlay"/><path d="M12.102 39.531a.89.89 0 101.78 0 4.459 4.459 0 014.454-4.453 4.466 4.466 0 014.453 4.453.89.89 0 101.781 0 6.252 6.252 0 00-3.023-5.343 6.226 6.226 0 003.023-5.344c0-3.434-2.8-6.235-6.234-6.235a6.24 6.24 0 00-6.234 6.235 6.252 6.252 0 003.023 5.343 6.252 6.252 0 00-3.023 5.344zm1.78-10.687a4.459 4.459 0 014.454-4.453 4.466 4.466 0 014.453 4.453 4.466 4.466 0 01-4.453 4.453 4.459 4.459 0 01-4.453-4.453z" fill="#FFBC2B"/><path d="M12.102 39.531a.89.89 0 101.78 0 4.459 4.459 0 014.454-4.453 4.466 4.466 0 014.453 4.453.89.89 0 101.781 0 6.252 6.252 0 00-3.023-5.343 6.226 6.226 0 003.023-5.344c0-3.434-2.8-6.235-6.234-6.235a6.24 6.24 0 00-6.234 6.235 6.252 6.252 0 003.023 5.343 6.252 6.252 0 00-3.023 5.344zm1.78-10.687a4.459 4.459 0 014.454-4.453 4.466 4.466 0 014.453 4.453 4.466 4.466 0 01-4.453 4.453 4.459 4.459 0 01-4.453-4.453z" fill="url(#paint7_linear)" fill-opacity=".42" style="mix-blend-mode:overlay"/></g><g clip-path="url(#clip1)" fill="#2D2C2F"><path d="M54.809 9.844H5.19A5.201 5.201 0 000 15.035v29.906a5.201 5.201 0 005.191 5.192h49.63a5.201 5.201 0 005.19-5.192V15.035c-.011-2.86-2.343-5.191-5.202-5.191zm3.41 35.086a3.4 3.4 0 01-3.399 3.398H5.191a3.4 3.4 0 01-3.398-3.398V15.035a3.4 3.4 0 013.398-3.398h49.63a3.401 3.401 0 013.398 3.398V44.93z"/><path d="M26.672 16.969H6a.89.89 0 00-.89.89v23.52c0 .492.398.89.89.89h20.672a.89.89 0 00.89-.89v-23.52a.89.89 0 00-.89-.89zm-.89 23.531H6.89V18.75h18.89V40.5zM54.234 19.043H31.898a.89.89 0 100 1.781h22.336a.89.89 0 100-1.781zM54.234 25.5h-4.992a.89.89 0 100 1.781h4.992a.89.89 0 100-1.781zM31.898 27.281H45.68a.89.89 0 100-1.781H31.898a.89.89 0 100 1.781zM54.234 31.969H31.898a.89.89 0 100 1.781h22.336a.89.89 0 100-1.781zM44.016 38.426H31.898a.89.89 0 100 1.781h12.118a.89.89 0 100-1.781z"/><path d="M10.102 38.531a.89.89 0 101.78 0 4.459 4.459 0 014.454-4.453 4.466 4.466 0 014.453 4.453.89.89 0 101.781 0 6.252 6.252 0 00-3.023-5.343 6.226 6.226 0 003.023-5.344c0-3.434-2.8-6.235-6.234-6.235a6.24 6.24 0 00-6.234 6.235 6.252 6.252 0 003.023 5.343 6.252 6.252 0 00-3.023 5.344zm1.78-10.687a4.459 4.459 0 014.454-4.453 4.466 4.466 0 014.453 4.453 4.466 4.466 0 01-4.453 4.453 4.459 4.459 0 01-4.453-4.453z"/></g><defs><linearGradient id="paint0_linear" x1="32.006" y1="10.844" x2="32.006" y2="51.133" gradientUnits="userSpaceOnUse"><stop stop-color="#fff"/><stop offset="1"/></linearGradient><linearGradient id="paint1_linear" x1="18.336" y1="17.969" x2="18.336" y2="43.27" gradientUnits="userSpaceOnUse"><stop stop-color="#fff"/><stop offset="1"/></linearGradient><linearGradient id="paint2_linear" x1="45.066" y1="20.043" x2="45.066" y2="21.824" gradientUnits="userSpaceOnUse"><stop stop-color="#fff"/><stop offset="1"/></linearGradient><linearGradient id="paint3_linear" x1="53.738" y1="26.5" x2="53.738" y2="28.281" gradientUnits="userSpaceOnUse"><stop stop-color="#fff"/><stop offset="1"/></linearGradient><linearGradient id="paint4_linear" x1="40.789" y1="26.5" x2="40.789" y2="28.281" gradientUnits="userSpaceOnUse"><stop stop-color="#fff"/><stop offset="1"/></linearGradient><linearGradient id="paint5_linear" x1="45.066" y1="32.969" x2="45.066" y2="34.75" gradientUnits="userSpaceOnUse"><stop stop-color="#fff"/><stop offset="1"/></linearGradient><linearGradient id="paint6_linear" x1="39.957" y1="39.426" x2="39.957" y2="41.207" gradientUnits="userSpaceOnUse"><stop stop-color="#fff"/><stop offset="1"/></linearGradient><linearGradient id="paint7_linear" x1="18.336" y1="22.609" x2="18.336" y2="40.422" gradientUnits="userSpaceOnUse"><stop stop-color="#fff"/><stop offset="1"/></linearGradient><clipPath id="clip0"><path fill="#fff" transform="translate(2 1)" d="M0 0h60v60H0z"/></clipPath><clipPath id="clip1"><path fill="#fff" d="M0 0h60v60H0z"/></clipPath></defs></svg>