<svg xmlns="http://www.w3.org/2000/svg" viewBox="0 0 26 24.6" width="26" height="24.6"><path d="M13 0C9.5 0 9.1 0 7.7.1 6.4.1 5.4.3 4.6.6c-.8.4-1.5.8-2.3 1.5-.7.6-1.1 1.3-1.4 2.1-.3.8-.6 1.7-.6 3C.2 8.5.2 9 .2 12.3s0 3.8.1 5.1c.1 1.3.3 2.2.6 3 .3.8.8 1.5 1.5 2.2.7.7 1.4 1.1 2.3 1.4.8.3 1.7.5 3.1.6 1.4.1 1.8.1 5.3.1s3.9 0 5.3-.1 2.3-.3 3.1-.6c.8-.3 1.6-.7 2.3-1.4.7-.7 1.1-1.4 1.5-2.2.3-.8.5-1.7.6-3 .1-1.3.1-1.7.1-5.1 0-3.3 0-3.8-.1-5.1-.1-1.3-.3-2.2-.6-3-.3-.8-.8-1.5-1.5-2.2-.7-.7-1.4-1.1-2.3-1.4-.8-.3-1.7-.5-3.1-.6H13zm-.4 2.2h.4c3.4 0 3.8 0 5.2.1 1.2.1 1.9.3 2.4.4.6.2 1 .5 1.5.9.4.4.7.8 1 1.4.2.4.4 1.1.4 2.3.1 1.3.1 1.7.1 5s0 3.7-.1 5c-.1 1.2-.3 1.8-.4 2.3-.2.6-.5 1-1 1.4-.4.4-.9.7-1.5.9-.5.2-1.1.4-2.4.4-1.3.1-1.8.1-5.2.1-3.4 0-3.8 0-5.2-.1-1.2-.1-1.9-.3-2.4-.4-.6-.2-1-.5-1.5-.9-.4-.4-.7-.8-1-1.4-.2-.4-.4-1.1-.4-2.3-.1-1.3-.1-1.7-.1-5s0-3.7.1-5c.1-1.2.3-1.8.5-2.3.2-.6.5-1 1-1.4.4-.4.9-.7 1.5-.9.5-.2 1.1-.4 2.4-.4 1.2-.1 1.6-.1 4-.1h.7zm5.7 3.5c0-.8.7-1.5 1.5-1.5s1.5.7 1.5 1.5-.7 1.5-1.5 1.5-1.5-.7-1.5-1.5zM13 6c-3.6 0-6.6 2.8-6.6 6.3s2.9 6.3 6.6 6.3c3.6 0 6.6-2.8 6.6-6.3S16.6 6 13 6zm4.3 6.3c0-2.3-1.9-4.1-4.3-4.1S8.7 10 8.7 12.3s1.9 4.1 4.3 4.1 4.3-1.8 4.3-4.1z" fill-rule="evenodd" clip-rule="evenodd" fill="#2d2c2f"/></svg>