<svg xmlns="http://www.w3.org/2000/svg" viewBox="0 0 13.3 13.3" width="16" height="16"><path d="M3 0c.4 0 .7.2.9.5.5.5 1.7 2 1.7 2.4.1.5 0 .8-.3 1.3v.1c-.1.3-.2.4-.1.5.6 1.6 1.8 2.7 3.3 3.4.2.1.3 0 .6-.2l.2-.1c.4-.2.7-.3 1.1-.2.4.1 1.9 1.2 2.4 1.7.3.3.4.6.5 1 0 .9-1.1 2.2-1.7 2.6-.8.5-1.7.5-2.8 0C6 11.8 1.6 7.5.4 4.6l-.1-.2c-.4-1.1-.4-2 .1-2.7C.9 1 2.1 0 3 0zm-.1 1c-.5 0-1.4.8-1.7 1.3v.1c-.3.4-.2 1 .1 1.8l.1.2C2.5 7 6.6 11 9.2 12.1l.1.1c.7.3 1.3.3 1.8 0 .1-.1.5-.4.7-.7.4-.4.6-.8.5-1 0-.1-.1-.2-.2-.3-.4-.4-1.8-1.4-1.9-1.5-.1 0-.3 0-.6.2h-.1c-.5.3-.8.3-1.3.2C6.3 8.3 5 7 4.3 5.1c-.2-.5-.1-.8.2-1.4l.1-.1c.1-.3.2-.4.1-.5 0-.2-1.1-1.5-1.5-1.9C3.1 1 3 1 2.9 1z" fill-rule="evenodd" clip-rule="evenodd" fill="#2d2c2f"/></svg>