<svg width="62" height="61" viewBox="0 0 62 61" fill="none" xmlns="http://www.w3.org/2000/svg"><path d="M47.612 16.797l12.54 4.242-5.907 2.883a2.756 2.756 0 00-.82-.375l-17.707-4.629c-.563-2.895-4.126-4.113-6.317-2.05a3.804 3.804 0 00-1.195 2.765v.023a2.256 2.256 0 002.262 2.227h3.058a2.25 2.25 0 001.992-1.184l16.524 4.313C46.827 27.555 35.108 33.273 33.608 34a3.636 3.636 0 01-3.21 0L3.841 21.04l26.989-9.118a3.648 3.648 0 012.344 0l15.503 5.238-1.066-.363zm.727-1.617l-14.602-4.934a5.488 5.488 0 00-3.469 0L3.163 19.41c-1.442.492-1.57 2.485-.2 3.152l13.91 6.786c-.761 3.633-1.933 7.558-3.199 11.027-.515 1.418-.07 3 1.114 3.938 4.02 3.152 8.754 5.59 13.617 7.16 2.285.738 4.828.761 7.207 0 4.863-1.57 9.61-4.008 13.617-7.16a3.474 3.474 0 001.114-3.938c-1.243-3.398-2.426-7.348-3.2-11.027l6.54-3.188v13.23a2.171 2.171 0 00-2.005 2.157v2.566c0 .375.165.727.422.961l-.328 4.934a1.677 1.677 0 001.664 1.781h2.227c.96 0 1.734-.82 1.664-1.781l-.328-4.934a1.29 1.29 0 00.422-.96v-2.567a2.162 2.162 0 00-2.004-2.156V26.148c0-.27-.047-.527-.117-.785l5.73-2.789c1.371-.668 1.242-2.66-.2-3.152l-12.655-4.29.164.048zm-14.813 4.933h-3.047c-.27 0-.504-.222-.504-.468v-.012c0-.563.223-1.09.645-1.477 1.265-1.195 3.34-.328 3.422 1.383.011.398-.258.574-.516.574zm14.168 18c-4.746 3.715-11.484 6.375-13.805 6.82a.889.889 0 00-.703 1.032c.094.48.551.785 1.032.703 2.425-.469 9.081-3.047 14.074-6.785.117.351.27.75.398 1.101a1.715 1.715 0 01-.55 1.946c-4.735 3.715-9.727 5.789-13.067 6.867a10.042 10.042 0 01-6.129 0c-3.351-1.078-8.344-3.152-13.066-6.867a1.715 1.715 0 01-.551-1.946c0-.011.011-.023.011-.047.13-.351.27-.75.376-1.066 4.874 3.645 11.507 6.293 14.074 6.785a.88.88 0 001.031-.703.88.88 0 00-.703-1.031c-2.192-.422-8.953-3.024-13.805-6.82a84.01 84.01 0 002.192-7.98l11.132 5.425a5.387 5.387 0 004.758 0l11.121-5.426a80.33 80.33 0 002.18 7.992zm5.836 11.918l.305-4.617h1.43l.304 4.617H53.53zm2.156-8.484v2.11h-2.25v-2.11c0-.223.188-.41.41-.41h1.43c.211 0 .41.187.41.41z" fill="#FFBC2B"/><path d="M47.612 16.797l12.54 4.242-5.907 2.883a2.756 2.756 0 00-.82-.375l-17.707-4.629c-.563-2.895-4.126-4.113-6.317-2.05a3.804 3.804 0 00-1.195 2.765v.023a2.256 2.256 0 002.262 2.227h3.058a2.25 2.25 0 001.992-1.184l16.524 4.313C46.827 27.555 35.108 33.273 33.608 34a3.636 3.636 0 01-3.21 0L3.841 21.04l26.989-9.118a3.648 3.648 0 012.344 0l15.503 5.238-1.066-.363zm.727-1.617l-14.602-4.934a5.488 5.488 0 00-3.469 0L3.163 19.41c-1.442.492-1.57 2.485-.2 3.152l13.91 6.786c-.761 3.633-1.933 7.558-3.199 11.027-.515 1.418-.07 3 1.114 3.938 4.02 3.152 8.754 5.59 13.617 7.16 2.285.738 4.828.761 7.207 0 4.863-1.57 9.61-4.008 13.617-7.16a3.474 3.474 0 001.114-3.938c-1.243-3.398-2.426-7.348-3.2-11.027l6.54-3.188v13.23a2.171 2.171 0 00-2.005 2.157v2.566c0 .375.165.727.422.961l-.328 4.934a1.677 1.677 0 001.664 1.781h2.227c.96 0 1.734-.82 1.664-1.781l-.328-4.934a1.29 1.29 0 00.422-.96v-2.567a2.162 2.162 0 00-2.004-2.156V26.148c0-.27-.047-.527-.117-.785l5.73-2.789c1.371-.668 1.242-2.66-.2-3.152l-12.655-4.29.164.048zm-14.813 4.933h-3.047c-.27 0-.504-.222-.504-.468v-.012c0-.563.223-1.09.645-1.477 1.265-1.195 3.34-.328 3.422 1.383.011.398-.258.574-.516.574zm14.168 18c-4.746 3.715-11.484 6.375-13.805 6.82a.889.889 0 00-.703 1.032c.094.48.551.785 1.032.703 2.425-.469 9.081-3.047 14.074-6.785.117.351.27.75.398 1.101a1.715 1.715 0 01-.55 1.946c-4.735 3.715-9.727 5.789-13.067 6.867a10.042 10.042 0 01-6.129 0c-3.351-1.078-8.344-3.152-13.066-6.867a1.715 1.715 0 01-.551-1.946c0-.011.011-.023.011-.047.13-.351.27-.75.376-1.066 4.874 3.645 11.507 6.293 14.074 6.785a.88.88 0 001.031-.703.88.88 0 00-.703-1.031c-2.192-.422-8.953-3.024-13.805-6.82a84.01 84.01 0 002.192-7.98l11.132 5.425a5.387 5.387 0 004.758 0l11.121-5.426a80.33 80.33 0 002.18 7.992zm5.836 11.918l.305-4.617h1.43l.304 4.617H53.53zm2.156-8.484v2.11h-2.25v-2.11c0-.223.188-.41.41-.41h1.43c.211 0 .41.187.41.41z" fill="url(#paint0_linear)" fill-opacity=".42" style="mix-blend-mode:overlay"/><path d="M45.612 15.797l12.54 4.242-5.907 2.883a2.756 2.756 0 00-.82-.375l-17.707-4.629c-.563-2.895-4.126-4.113-6.317-2.05a3.804 3.804 0 00-1.195 2.765v.023a2.256 2.256 0 002.262 2.227h3.058a2.25 2.25 0 001.992-1.184l16.524 4.313C44.827 26.555 33.108 32.273 31.608 33a3.636 3.636 0 01-3.21 0L1.841 20.04l26.989-9.118a3.648 3.648 0 012.343 0l15.504 5.238-1.066-.363zm.727-1.617L31.737 9.246a5.488 5.488 0 00-3.469 0L1.163 18.41c-1.442.492-1.57 2.485-.2 3.152l13.91 6.786c-.761 3.633-1.933 7.558-3.198 11.027-.516 1.418-.07 3 1.113 3.938 4.02 3.152 8.754 5.59 13.617 7.16 2.285.738 4.828.761 7.207 0 4.863-1.57 9.61-4.008 13.617-7.16a3.474 3.474 0 001.114-3.938c-1.243-3.398-2.426-7.348-3.2-11.027l6.54-3.188v13.23a2.171 2.171 0 00-2.005 2.157v2.566c0 .375.165.727.422.961l-.328 4.934a1.677 1.677 0 001.664 1.781h2.227c.96 0 1.734-.82 1.664-1.781l-.328-4.934a1.29 1.29 0 00.422-.96v-2.567a2.162 2.162 0 00-2.004-2.156V25.148c0-.27-.047-.527-.117-.785l5.73-2.789c1.371-.668 1.242-2.66-.2-3.152l-12.655-4.29.164.048zm-14.813 4.933h-3.047c-.27 0-.504-.222-.504-.468v-.012c0-.563.223-1.09.645-1.477 1.265-1.195 3.34-.328 3.422 1.383.011.398-.258.574-.516.574zm14.168 18c-4.746 3.715-11.484 6.375-13.805 6.82a.889.889 0 00-.703 1.032c.094.48.551.785 1.032.703 2.425-.469 9.081-3.047 14.074-6.785.117.351.27.75.398 1.101a1.715 1.715 0 01-.55 1.946c-4.735 3.715-9.727 5.789-13.067 6.867a10.042 10.042 0 01-6.129 0c-3.351-1.078-8.344-3.152-13.066-6.867a1.715 1.715 0 01-.551-1.946c0-.011.011-.023.011-.047.13-.351.27-.75.376-1.066 4.874 3.645 11.507 6.293 14.074 6.785a.88.88 0 001.031-.703.88.88 0 00-.703-1.031c-2.192-.422-8.953-3.024-13.805-6.82a84.01 84.01 0 002.192-7.98l11.132 5.425a5.387 5.387 0 004.758 0l11.121-5.426a80.33 80.33 0 002.18 7.992zm5.836 11.918l.305-4.617h1.43l.304 4.617H51.53zm2.156-8.484v2.11h-2.25v-2.11c0-.223.188-.41.41-.41h1.43c.211 0 .41.187.41.41z" fill="#2D2C2F"/><defs><linearGradient id="paint0_linear" x1="31.997" y1="9.965" x2="31.997" y2="52.035" gradientUnits="userSpaceOnUse"><stop stop-color="#fff"/><stop offset="1"/></linearGradient></defs></svg>