<svg width="56" height="62" viewBox="0 0 56 62" fill="none" xmlns="http://www.w3.org/2000/svg"><g clip-path="url(#clip0)"><path d="M14.234 40.824c.802-.785 5.105-2.625 7.89-6.316l.99-1.594c.802-1.289.633-3.07-.4-4.148-.58-.598-1.329-.903-2.11-.856-.79.047-1.508.434-2.024 1.102-1.509 1.933-3.48 3.281-5.706 3.902l-.306.082c.369-.75.59-1.617.59-2.531v-.54c0-2.894-2.12-5.238-4.714-5.238-2.594 0-4.714 2.356-4.714 5.239v.539c0 1.23.38 2.355 1.023 3.246-1.603.727-2.743 2.473-2.743 4.512V60.828c0 .645.475 1.172 1.055 1.172h51.89c.58 0 1.055-.527 1.055-1.172v-2.766c0-3.48-1.92-6.457-4.64-7.722.696-.88 1.118-2.028 1.118-3.293v-.516c0-2.754-2.015-4.992-4.493-4.992-2.479 0-4.493 2.238-4.493 4.992v.516c0 1.266.422 2.414 1.118 3.293-1.498.691-2.764 1.922-3.586 3.457-.823-1.535-2.078-2.766-3.586-3.457.696-.88 1.118-2.028 1.118-3.293v-.516c0-2.754-2.015-4.992-4.493-4.992-2.479 0-4.493 2.238-4.493 4.992v.516c0 1.266.422 2.414 1.118 3.293-1.498.691-2.763 1.922-3.586 3.457-.823-1.535-2.078-2.766-3.586-3.457.696-.88 1.118-2.028 1.118-3.293v-.516c0-2.754-2.014-4.992-4.493-4.992-2.479 0-4.493 2.238-4.493 4.992v.516c0 1.266.422 2.414 1.118 3.293a7.643 7.643 0 00-2.531 1.922V40.824h-.01zm31.367 5.719c0-1.465 1.065-2.648 2.383-2.648 1.319 0 2.384 1.183 2.384 2.648v.516c0 1.464-1.066 2.648-2.384 2.648-1.318 0-2.383-1.184-2.383-2.648v-.516zm-13.922 0c0-1.465 1.065-2.648 2.383-2.648 1.319 0 2.384 1.183 2.384 2.648v.516c0 1.464-1.065 2.648-2.384 2.648-1.318 0-2.383-1.184-2.383-2.648v-.516zm-13.922 0c0-1.465 1.065-2.648 2.383-2.648 1.319 0 2.384 1.183 2.384 2.648v.516c0 1.464-1.065 2.648-2.384 2.648-1.318 0-2.383-1.184-2.383-2.648v-.516zM5.828 29.938c0-1.594 1.171-2.895 2.606-2.895 1.434 0 2.605 1.3 2.605 2.895v.539c0 1.582-1.14 2.859-2.553 2.894h-.105c-1.414-.035-2.553-1.312-2.553-2.894v-.54zM4.11 38.245c0-1.395 1.023-2.531 2.278-2.531h5a.943.943 0 00.253-.035l1.75-.492c2.658-.739 5-2.344 6.793-4.653a.73.73 0 01.538-.293.72.72 0 01.559.223c.274.281.316.762.105 1.101l-.991 1.594c-1.108 1.77-2.616 3.2-4.367 4.113l-3.3 1.758c-.37.2-.602.61-.602 1.055v8.437H4.109V38.246zm0 12.621h8.016v8.789H9.172v-4.394c0-.645-.475-1.172-1.055-1.172s-1.055.527-1.055 1.172v4.394H4.11v-8.789zm10.125 7.196c0-3.317 2.426-6.024 5.421-6.024h.981c2.985 0 5.421 2.695 5.421 6.023v1.594H14.234v-1.593zm13.922 0c0-3.317 2.426-6.024 5.421-6.024h.981c2.985 0 5.421 2.695 5.421 6.023v1.594H28.156v-1.593zm25.734 1.593H42.078v-1.593c0-3.317 2.426-6.024 5.421-6.024h.98c2.986 0 5.422 2.695 5.422 6.023l-.01 1.594z" fill="#FFBC2B"/><path d="M14.234 40.824c.802-.785 5.105-2.625 7.89-6.316l.99-1.594c.802-1.289.633-3.07-.4-4.148-.58-.598-1.329-.903-2.11-.856-.79.047-1.508.434-2.024 1.102-1.509 1.933-3.48 3.281-5.706 3.902l-.306.082c.369-.75.59-1.617.59-2.531v-.54c0-2.894-2.12-5.238-4.714-5.238-2.594 0-4.714 2.356-4.714 5.239v.539c0 1.23.38 2.355 1.023 3.246-1.603.727-2.743 2.473-2.743 4.512V60.828c0 .645.475 1.172 1.055 1.172h51.89c.58 0 1.055-.527 1.055-1.172v-2.766c0-3.48-1.92-6.457-4.64-7.722.696-.88 1.118-2.028 1.118-3.293v-.516c0-2.754-2.015-4.992-4.493-4.992-2.479 0-4.493 2.238-4.493 4.992v.516c0 1.266.422 2.414 1.118 3.293-1.498.691-2.764 1.922-3.586 3.457-.823-1.535-2.078-2.766-3.586-3.457.696-.88 1.118-2.028 1.118-3.293v-.516c0-2.754-2.015-4.992-4.493-4.992-2.479 0-4.493 2.238-4.493 4.992v.516c0 1.266.422 2.414 1.118 3.293-1.498.691-2.763 1.922-3.586 3.457-.823-1.535-2.078-2.766-3.586-3.457.696-.88 1.118-2.028 1.118-3.293v-.516c0-2.754-2.014-4.992-4.493-4.992-2.479 0-4.493 2.238-4.493 4.992v.516c0 1.266.422 2.414 1.118 3.293a7.643 7.643 0 00-2.531 1.922V40.824h-.01zm31.367 5.719c0-1.465 1.065-2.648 2.383-2.648 1.319 0 2.384 1.183 2.384 2.648v.516c0 1.464-1.066 2.648-2.384 2.648-1.318 0-2.383-1.184-2.383-2.648v-.516zm-13.922 0c0-1.465 1.065-2.648 2.383-2.648 1.319 0 2.384 1.183 2.384 2.648v.516c0 1.464-1.065 2.648-2.384 2.648-1.318 0-2.383-1.184-2.383-2.648v-.516zm-13.922 0c0-1.465 1.065-2.648 2.383-2.648 1.319 0 2.384 1.183 2.384 2.648v.516c0 1.464-1.065 2.648-2.384 2.648-1.318 0-2.383-1.184-2.383-2.648v-.516zM5.828 29.938c0-1.594 1.171-2.895 2.606-2.895 1.434 0 2.605 1.3 2.605 2.895v.539c0 1.582-1.14 2.859-2.553 2.894h-.105c-1.414-.035-2.553-1.312-2.553-2.894v-.54zM4.11 38.245c0-1.395 1.023-2.531 2.278-2.531h5a.943.943 0 00.253-.035l1.75-.492c2.658-.739 5-2.344 6.793-4.653a.73.73 0 01.538-.293.72.72 0 01.559.223c.274.281.316.762.105 1.101l-.991 1.594c-1.108 1.77-2.616 3.2-4.367 4.113l-3.3 1.758c-.37.2-.602.61-.602 1.055v8.437H4.109V38.246zm0 12.621h8.016v8.789H9.172v-4.394c0-.645-.475-1.172-1.055-1.172s-1.055.527-1.055 1.172v4.394H4.11v-8.789zm10.125 7.196c0-3.317 2.426-6.024 5.421-6.024h.981c2.985 0 5.421 2.695 5.421 6.023v1.594H14.234v-1.593zm13.922 0c0-3.317 2.426-6.024 5.421-6.024h.981c2.985 0 5.421 2.695 5.421 6.023v1.594H28.156v-1.593zm25.734 1.593H42.078v-1.593c0-3.317 2.426-6.024 5.421-6.024h.98c2.986 0 5.422 2.695 5.422 6.023l-.01 1.594z" fill="url(#paint0_linear)" fill-opacity=".42" style="mix-blend-mode:overlay"/><path d="M54.945 2H12.758c-.58 0-1.055.527-1.055 1.172V23.07c0 .645.475 1.172 1.055 1.172s1.055-.527 1.055-1.172V4.344H53.89v32.812H21.786c-.58 0-1.055.528-1.055 1.172 0 .645.475 1.172 1.055 1.172h33.16c.58 0 1.054-.527 1.054-1.172V3.172C56 2.527 55.525 2 54.945 2z" fill="#FFBC2B"/><path d="M54.945 2H12.758c-.58 0-1.055.527-1.055 1.172V23.07c0 .645.475 1.172 1.055 1.172s1.055-.527 1.055-1.172V4.344H53.89v32.812H21.786c-.58 0-1.055.528-1.055 1.172 0 .645.475 1.172 1.055 1.172h33.16c.58 0 1.054-.527 1.054-1.172V3.172C56 2.527 55.525 2 54.945 2z" fill="url(#paint1_linear)" fill-opacity=".42" style="mix-blend-mode:overlay"/><path d="M21.195 23.574h-4.04c-.58 0-1.054.527-1.054 1.172 0 .645.475 1.172 1.055 1.172h7.773v.059c0 2.062 1.518 3.75 3.375 3.75 1.856 0 3.375-1.688 3.375-3.75v-.06h9.903v.06c0 2.062 1.519 3.75 3.375 3.75s3.375-1.688 3.375-3.75v-.047h1.761c.58 0 1.055-.528 1.055-1.172v-4.125c0-2.637-1.93-4.781-4.303-4.781h-1.582L43.28 10.66c-.57-1.5-1.898-2.473-3.364-2.473h-8.459c-1.466 0-2.795.973-3.364 2.473l-1.983 5.192h-6.402c-.58 0-1.055.527-1.055 1.171 0 .645.475 1.172 1.055 1.172h2.099a5.189 5.189 0 00-.601 2.438l-.01 2.941zm7.109 3.797c-.696 0-1.266-.633-1.266-1.406 0-.774.57-1.406 1.266-1.406.696 0 1.265.632 1.265 1.406 0 .773-.57 1.406-1.265 1.406zm16.653 0c-.696 0-1.265-.633-1.265-1.406 0-.774.57-1.406 1.265-1.406.696 0 1.266.632 1.266 1.406 0 .773-.57 1.406-1.266 1.406zm4.082-6.738v2.953h-1.487c-.623-.832-1.55-1.36-2.595-1.36-1.044 0-1.972.528-2.594 1.348H36.74v-5.379h10.104c1.213-.011 2.194 1.09 2.194 2.438zm-7.7-9.059l1.635 4.266h-6.233V10.53h3.175c.622 0 1.181.41 1.424 1.043zm-11.306 0c.243-.633.802-1.043 1.424-1.043h3.175v5.32h-6.233l1.634-4.277zm-3.227 6.61h7.826v5.378h-3.734c-.622-.82-1.55-1.347-2.594-1.347-1.044 0-1.973.527-2.595 1.348h-2.404v-2.93c0-1.348.98-2.438 2.193-2.438 0-.011 1.308-.011 1.308-.011z" fill="#FFBC2B"/><path d="M21.195 23.574h-4.04c-.58 0-1.054.527-1.054 1.172 0 .645.475 1.172 1.055 1.172h7.773v.059c0 2.062 1.518 3.75 3.375 3.75 1.856 0 3.375-1.688 3.375-3.75v-.06h9.903v.06c0 2.062 1.519 3.75 3.375 3.75s3.375-1.688 3.375-3.75v-.047h1.761c.58 0 1.055-.528 1.055-1.172v-4.125c0-2.637-1.93-4.781-4.303-4.781h-1.582L43.28 10.66c-.57-1.5-1.898-2.473-3.364-2.473h-8.459c-1.466 0-2.795.973-3.364 2.473l-1.983 5.192h-6.402c-.58 0-1.055.527-1.055 1.171 0 .645.475 1.172 1.055 1.172h2.099a5.189 5.189 0 00-.601 2.438l-.01 2.941zm7.109 3.797c-.696 0-1.266-.633-1.266-1.406 0-.774.57-1.406 1.266-1.406.696 0 1.265.632 1.265 1.406 0 .773-.57 1.406-1.265 1.406zm16.653 0c-.696 0-1.265-.633-1.265-1.406 0-.774.57-1.406 1.265-1.406.696 0 1.266.632 1.266 1.406 0 .773-.57 1.406-1.266 1.406zm4.082-6.738v2.953h-1.487c-.623-.832-1.55-1.36-2.595-1.36-1.044 0-1.972.528-2.594 1.348H36.74v-5.379h10.104c1.213-.011 2.194 1.09 2.194 2.438zm-7.7-9.059l1.635 4.266h-6.233V10.53h3.175c.622 0 1.181.41 1.424 1.043zm-11.306 0c.243-.633.802-1.043 1.424-1.043h3.175v5.32h-6.233l1.634-4.277zm-3.227 6.61h7.826v5.378h-3.734c-.622-.82-1.55-1.347-2.594-1.347-1.044 0-1.973.527-2.595 1.348h-2.404v-2.93c0-1.348.98-2.438 2.193-2.438 0-.011 1.308-.011 1.308-.011z" fill="url(#paint2_linear)" fill-opacity=".42" style="mix-blend-mode:overlay"/></g><g clip-path="url(#clip1)" fill="#2D2C2F"><path d="M12.234 38.824c.802-.785 5.105-2.625 7.89-6.316l.99-1.594c.802-1.289.633-3.07-.4-4.148-.58-.598-1.329-.903-2.11-.856-.79.047-1.508.434-2.024 1.102-1.509 1.933-3.48 3.281-5.706 3.902l-.306.082c.369-.75.59-1.617.59-2.531v-.54c0-2.894-2.12-5.238-4.714-5.238-2.594 0-4.714 2.356-4.714 5.239v.539c0 1.23.38 2.355 1.023 3.246C1.15 32.438.01 34.184.01 36.223V58.828C.01 59.473.485 60 1.065 60h51.89c.58 0 1.055-.527 1.055-1.172v-2.766c0-3.48-1.92-6.457-4.64-7.722.696-.88 1.118-2.028 1.118-3.293v-.516c0-2.754-2.015-4.992-4.493-4.992-2.479 0-4.493 2.238-4.493 4.992v.516c0 1.266.422 2.414 1.118 3.293-1.498.691-2.764 1.922-3.586 3.457-.823-1.535-2.078-2.766-3.586-3.457.696-.88 1.118-2.028 1.118-3.293v-.516c0-2.754-2.015-4.992-4.493-4.992-2.479 0-4.493 2.238-4.493 4.992v.516c0 1.266.422 2.414 1.118 3.293-1.498.691-2.763 1.922-3.586 3.457-.823-1.535-2.078-2.766-3.586-3.457.696-.88 1.118-2.028 1.118-3.293v-.516c0-2.754-2.014-4.992-4.493-4.992-2.479 0-4.493 2.238-4.493 4.992v.516c0 1.266.422 2.414 1.118 3.293a7.643 7.643 0 00-2.531 1.922V38.824h-.01zm31.367 5.719c0-1.465 1.065-2.648 2.383-2.648 1.319 0 2.384 1.183 2.384 2.648v.516c0 1.464-1.066 2.648-2.384 2.648-1.318 0-2.383-1.184-2.383-2.648v-.516zm-13.922 0c0-1.465 1.065-2.648 2.383-2.648 1.319 0 2.384 1.183 2.384 2.648v.516c0 1.464-1.065 2.648-2.384 2.648-1.318 0-2.383-1.184-2.383-2.648v-.516zm-13.922 0c0-1.465 1.065-2.648 2.383-2.648 1.319 0 2.384 1.183 2.384 2.648v.516c0 1.464-1.065 2.648-2.384 2.648-1.318 0-2.383-1.184-2.383-2.648v-.516zM3.828 27.938c0-1.594 1.171-2.895 2.606-2.895 1.434 0 2.605 1.3 2.605 2.895v.539c0 1.582-1.14 2.859-2.553 2.894h-.105c-1.414-.035-2.553-1.312-2.553-2.894v-.54zM2.11 36.245c0-1.395 1.023-2.531 2.278-2.531h5a.943.943 0 00.253-.035l1.75-.492c2.658-.739 5-2.344 6.793-4.653a.73.73 0 01.538-.293.72.72 0 01.559.223c.274.281.316.762.105 1.101l-.991 1.594c-1.108 1.77-2.616 3.2-4.367 4.113l-3.3 1.758c-.37.2-.602.61-.602 1.055v8.437H2.109V36.246zm0 12.621h8.016v8.789H7.172v-4.394c0-.645-.475-1.172-1.055-1.172s-1.055.527-1.055 1.172v4.394H2.11v-8.789zm10.125 7.196c0-3.317 2.426-6.024 5.421-6.024h.981c2.985 0 5.421 2.695 5.421 6.023v1.594H12.234v-1.593zm13.922 0c0-3.317 2.426-6.024 5.421-6.024h.981c2.985 0 5.421 2.695 5.421 6.023v1.594H26.156v-1.593zm25.734 1.593H40.078v-1.593c0-3.317 2.426-6.024 5.421-6.024h.98c2.986 0 5.422 2.695 5.422 6.023l-.01 1.594z"/><path d="M52.945 0H10.758c-.58 0-1.055.527-1.055 1.172V21.07c0 .645.475 1.172 1.055 1.172s1.055-.527 1.055-1.172V2.344H51.89v32.812H19.786c-.58 0-1.055.528-1.055 1.172 0 .645.475 1.172 1.055 1.172h33.16c.58 0 1.054-.527 1.054-1.172V1.172C54 .527 53.525 0 52.945 0z"/><path d="M19.195 21.574h-4.04c-.58 0-1.054.527-1.054 1.172 0 .645.475 1.172 1.055 1.172h7.773v.059c0 2.062 1.518 3.75 3.375 3.75 1.856 0 3.375-1.688 3.375-3.75v-.06h9.903v.06c0 2.062 1.519 3.75 3.375 3.75s3.375-1.688 3.375-3.75v-.047h1.761c.58 0 1.055-.528 1.055-1.172v-4.125c0-2.637-1.93-4.781-4.303-4.781h-1.582L41.28 8.66c-.57-1.5-1.898-2.473-3.364-2.473h-8.459c-1.466 0-2.795.973-3.364 2.473l-1.983 5.192h-6.402c-.58 0-1.055.527-1.055 1.171 0 .645.475 1.172 1.055 1.172h2.099a5.189 5.189 0 00-.601 2.438l-.01 2.941zm7.109 3.797c-.696 0-1.266-.633-1.266-1.406 0-.774.57-1.406 1.266-1.406.696 0 1.265.632 1.265 1.406 0 .773-.57 1.406-1.265 1.406zm16.653 0c-.696 0-1.265-.633-1.265-1.406 0-.774.57-1.406 1.265-1.406.696 0 1.266.632 1.266 1.406 0 .773-.57 1.406-1.266 1.406zm4.082-6.738v2.953h-1.487c-.623-.832-1.55-1.36-2.595-1.36-1.044 0-1.972.528-2.594 1.348H34.74v-5.379h10.104c1.213-.011 2.194 1.09 2.194 2.438zm-7.7-9.059l1.635 4.266h-6.233V8.53h3.175c.622 0 1.181.41 1.424 1.043zm-11.306 0c.243-.633.802-1.043 1.424-1.043h3.175v5.32h-6.233l1.634-4.277zm-3.227 6.61h7.826v5.378h-3.734c-.622-.82-1.55-1.347-2.594-1.347-1.044 0-1.973.527-2.595 1.348h-2.404v-2.93c0-1.348.98-2.438 2.193-2.438 0-.011 1.308-.011 1.308-.011z"/></g><defs><linearGradient id="paint0_linear" x1="29.01" y1="24.688" x2="29.01" y2="62" gradientUnits="userSpaceOnUse"><stop stop-color="#fff"/><stop offset="1"/></linearGradient><linearGradient id="paint1_linear" x1="33.852" y1="2" x2="33.852" y2="39.5" gradientUnits="userSpaceOnUse"><stop stop-color="#fff"/><stop offset="1"/></linearGradient><linearGradient id="paint2_linear" x1="33.625" y1="8.188" x2="33.625" y2="29.727" gradientUnits="userSpaceOnUse"><stop stop-color="#fff"/><stop offset="1"/></linearGradient><clipPath id="clip0"><path fill="#fff" transform="translate(2 2)" d="M0 0h54v60H0z"/></clipPath><clipPath id="clip1"><path fill="#fff" d="M0 0h54v60H0z"/></clipPath></defs></svg>