<svg width="56" height="62" viewBox="0 0 56 62" fill="none" xmlns="http://www.w3.org/2000/svg"><g clip-path="url(#clip0)"><path d="M12.547 34.46c1.16 0 2.11 1.056 2.11 2.345 0 1.289-.95 2.343-2.11 2.343h-2.11c-1.16 0-2.109-1.054-2.109-2.343 0-1.29.95-2.344 2.11-2.344h2.109zm32.906 0c-1.16 0-2.11 1.056-2.11 2.345 0 1.289.95 2.343 2.11 2.343h2.11c1.16 0 2.109-1.054 2.109-2.343 0-1.29-.95-2.344-2.11-2.344h-2.11zm6.328 12.774V31.531c0-2.59-1.888-4.687-4.219-4.687H10.448c-2.33 0-4.219 2.097-4.219 4.687V44.88h10.537v-5.73c0-3.235 2.362-5.86 5.273-5.86h13.71c2.912 0 5.274 2.625 5.274 5.86v5.73H53.88c1.17 0 2.11 1.055 2.11 2.344v8.308c0 1.301-.95 2.344-2.11 2.344h-8.427c-1.17 0-2.11-1.055-2.11-2.344v-5.953H14.668v5.965c0 1.3-.95 2.344-2.11 2.344H4.12c-1.17 0-2.11-1.055-2.11-2.344V31.53c0-2.765 1.087-5.25 2.806-6.972v-.012a8.335 8.335 0 01-2.531-3.012c-.57-1.137-.2-2.555.822-3.187 1.023-.633 2.3-.223 2.87.914.337.68.843 1.218 1.57 1.652h.011l2.584-7.547c1.034-3 3.333-5.168 6.149-5.824a58.454 58.454 0 0112.92-1.441c5.431 0 9.808.761 12.53 1.406 2.794.656 5.083 2.824 6.106 5.789l2.637 7.57h.01c.696-.457 1.224-1.008 1.593-1.687.601-1.102 1.898-1.465 2.9-.797.992.668 1.319 2.11.718 3.222a9.011 9.011 0 01-2.521 2.918v.012c1.73 1.723 2.826 4.219 2.826 6.996v15.645c0 1.277-.886 2.355-2.035 2.402-1.213.047-2.194-1.02-2.194-2.344zM11.629 22.156h34.773l-2.489-7.172c-.517-1.476-1.656-2.566-3.048-2.894-2.52-.586-6.592-1.3-11.654-1.3-5.147 0-9.397.726-12.066 1.347-1.402.328-2.552 1.406-3.069 2.906l-2.447 7.113zm40.152 31.055v-3.633h-4.219v3.633h4.219zm-30.797-8.32h2.637v-1.114c0-1.289.95-2.343 2.11-2.343s2.109 1.054 2.109 2.343v1.114h2.11v-1.114c0-1.289.948-2.343 2.108-2.343 1.16 0 2.11 1.054 2.11 2.343v1.114h2.636v-5.743c0-.644-.474-1.172-1.054-1.172H22.039c-.58 0-1.055.528-1.055 1.172v5.743zM6.22 49.578v3.633h4.218v-3.633H6.22z" fill="#FFBC2B"/><path d="M12.547 34.46c1.16 0 2.11 1.056 2.11 2.345 0 1.289-.95 2.343-2.11 2.343h-2.11c-1.16 0-2.109-1.054-2.109-2.343 0-1.29.95-2.344 2.11-2.344h2.109zm32.906 0c-1.16 0-2.11 1.056-2.11 2.345 0 1.289.95 2.343 2.11 2.343h2.11c1.16 0 2.109-1.054 2.109-2.343 0-1.29-.95-2.344-2.11-2.344h-2.11zm6.328 12.774V31.531c0-2.59-1.888-4.687-4.219-4.687H10.448c-2.33 0-4.219 2.097-4.219 4.687V44.88h10.537v-5.73c0-3.235 2.362-5.86 5.273-5.86h13.71c2.912 0 5.274 2.625 5.274 5.86v5.73H53.88c1.17 0 2.11 1.055 2.11 2.344v8.308c0 1.301-.95 2.344-2.11 2.344h-8.427c-1.17 0-2.11-1.055-2.11-2.344v-5.953H14.668v5.965c0 1.3-.95 2.344-2.11 2.344H4.12c-1.17 0-2.11-1.055-2.11-2.344V31.53c0-2.765 1.087-5.25 2.806-6.972v-.012a8.335 8.335 0 01-2.531-3.012c-.57-1.137-.2-2.555.822-3.187 1.023-.633 2.3-.223 2.87.914.337.68.843 1.218 1.57 1.652h.011l2.584-7.547c1.034-3 3.333-5.168 6.149-5.824a58.454 58.454 0 0112.92-1.441c5.431 0 9.808.761 12.53 1.406 2.794.656 5.083 2.824 6.106 5.789l2.637 7.57h.01c.696-.457 1.224-1.008 1.593-1.687.601-1.102 1.898-1.465 2.9-.797.992.668 1.319 2.11.718 3.222a9.011 9.011 0 01-2.521 2.918v.012c1.73 1.723 2.826 4.219 2.826 6.996v15.645c0 1.277-.886 2.355-2.035 2.402-1.213.047-2.194-1.02-2.194-2.344zM11.629 22.156h34.773l-2.489-7.172c-.517-1.476-1.656-2.566-3.048-2.894-2.52-.586-6.592-1.3-11.654-1.3-5.147 0-9.397.726-12.066 1.347-1.402.328-2.552 1.406-3.069 2.906l-2.447 7.113zm40.152 31.055v-3.633h-4.219v3.633h4.219zm-30.797-8.32h2.637v-1.114c0-1.289.95-2.343 2.11-2.343s2.109 1.054 2.109 2.343v1.114h2.11v-1.114c0-1.289.948-2.343 2.108-2.343 1.16 0 2.11 1.054 2.11 2.343v1.114h2.636v-5.743c0-.644-.474-1.172-1.054-1.172H22.039c-.58 0-1.055.528-1.055 1.172v5.743zM6.22 49.578v3.633h4.218v-3.633H6.22z" fill="url(#paint0_linear)" fill-opacity=".42" style="mix-blend-mode:overlay"/></g><g clip-path="url(#clip1)"><path d="M10.547 32.46c1.16 0 2.11 1.056 2.11 2.345 0 1.289-.95 2.343-2.11 2.343h-2.11c-1.16 0-2.109-1.054-2.109-2.343 0-1.29.95-2.344 2.11-2.344h2.109zm32.906 0c-1.16 0-2.11 1.056-2.11 2.345 0 1.289.95 2.343 2.11 2.343h2.11c1.16 0 2.109-1.054 2.109-2.343 0-1.29-.95-2.344-2.11-2.344h-2.11zm6.328 12.774V29.531c0-2.59-1.888-4.687-4.219-4.687H8.448c-2.33 0-4.219 2.097-4.219 4.687V42.88h10.537v-5.73c0-3.235 2.362-5.86 5.273-5.86h13.71c2.912 0 5.274 2.625 5.274 5.86v5.73H51.88c1.17 0 2.11 1.055 2.11 2.344v8.308c0 1.301-.95 2.344-2.11 2.344h-8.427c-1.17 0-2.11-1.055-2.11-2.344v-5.953H12.668v5.965c0 1.3-.95 2.344-2.11 2.344H2.12c-1.17 0-2.11-1.055-2.11-2.344V29.53c0-2.765 1.087-5.25 2.806-6.972v-.012a8.335 8.335 0 01-2.531-3.012c-.57-1.137-.2-2.555.822-3.187 1.023-.633 2.3-.223 2.87.914.337.68.843 1.218 1.57 1.652h.011l2.584-7.547c1.034-3 3.333-5.168 6.149-5.824a58.454 58.454 0 0112.92-1.441c5.431 0 9.808.761 12.53 1.406 2.794.656 5.083 2.824 6.106 5.789l2.637 7.57h.01c.696-.457 1.224-1.008 1.593-1.687.601-1.102 1.898-1.465 2.9-.797.992.668 1.319 2.11.718 3.222a9.011 9.011 0 01-2.521 2.918v.012c1.73 1.723 2.826 4.219 2.826 6.996v15.645c0 1.277-.886 2.355-2.035 2.402-1.213.047-2.194-1.02-2.194-2.344zM9.629 20.156h34.773l-2.489-7.172c-.517-1.476-1.656-2.566-3.048-2.894-2.52-.586-6.592-1.3-11.654-1.3-5.147 0-9.397.726-12.066 1.347-1.402.328-2.552 1.406-3.069 2.906L9.63 20.156zm40.152 31.055v-3.633h-4.219v3.633h4.219zm-30.797-8.32h2.637v-1.114c0-1.289.95-2.343 2.11-2.343s2.109 1.054 2.109 2.343v1.114h2.11v-1.114c0-1.289.948-2.343 2.108-2.343 1.16 0 2.11 1.054 2.11 2.343v1.114h2.636v-5.743c0-.644-.474-1.172-1.054-1.172H20.039c-.58 0-1.055.528-1.055 1.172v5.743zM4.22 47.578v3.633h4.218v-3.633H4.22z" fill="#2D2C2F"/></g><defs><clipPath id="clip0"><path fill="#fff" transform="translate(2 2)" d="M0 0h54v60H0z"/></clipPath><clipPath id="clip1"><path fill="#fff" d="M0 0h54v60H0z"/></clipPath><linearGradient id="paint0_linear" x1="29.01" y1="6.102" x2="29.01" y2="57.887" gradientUnits="userSpaceOnUse"><stop stop-color="#fff"/><stop offset="1"/></linearGradient></defs></svg>