<svg width="56" height="62" viewBox="0 0 56 62" fill="none" xmlns="http://www.w3.org/2000/svg"><g clip-path="url(#clip0)"><path d="M39.7 54.458a1.298 1.298 0 00-.158-.422 1.107 1.107 0 00-.29-.324.99.99 0 00-.38-.175.944.944 0 00-.61.068 1.09 1.09 0 00-.57.634 1.288 1.288 0 00.096 1.098 1.098 1.098 0 00.292.323 1.082 1.082 0 00.379.176 1.025 1.025 0 00.412 0 .992.992 0 00.38-.176 1.135 1.135 0 00.388-.525 1.302 1.302 0 00.06-.677z" fill="#FFBC2B"/><path d="M39.7 54.458a1.298 1.298 0 00-.158-.422 1.107 1.107 0 00-.29-.324.99.99 0 00-.38-.175.944.944 0 00-.61.068 1.09 1.09 0 00-.57.634 1.288 1.288 0 00.096 1.098 1.098 1.098 0 00.292.323 1.082 1.082 0 00.379.176 1.025 1.025 0 00.412 0 .992.992 0 00.38-.176 1.135 1.135 0 00.388-.525 1.302 1.302 0 00.06-.677z" fill="url(#paint0_linear)" fill-opacity=".42" style="mix-blend-mode:overlay"/><path d="M43.382 53.52v-1.212c0-2.639-1.873-4.8-4.22-4.93v-1.212c0-2.721-1.992-4.935-4.44-4.935h-1.996V23.329c.583 0 1.055-.524 1.055-1.172v-4.092c1.709-.994 2.812-2.976 2.812-5.165V7.83c0-3.215-2.353-5.83-5.247-5.83h-4.693c-2.893 0-5.247 2.615-5.247 5.83v5.07c0 2.189 1.104 4.17 2.812 5.165v4.092c0 .648.473 1.172 1.055 1.172v17.902h-1.995c-2.449 0-4.44 2.214-4.44 4.935v1.213c-2.347.129-4.22 2.29-4.22 4.929v1.213c-2.346.129-4.22 2.29-4.22 4.928v2.38c0 .646.473 1.17 1.056 1.17h35.092c.582 0 1.055-.524 1.055-1.17v-2.38c0-2.638-1.873-4.8-4.22-4.928zM23.516 12.9V7.83c0-1.922 1.407-3.486 3.137-3.486h4.693c1.73 0 3.138 1.564 3.138 3.486v5.07c0 1.482-.846 2.805-2.105 3.293-.423.164-.707.608-.707 1.106v3.686h-5.344v-2.514h2.408c.582 0 1.055-.524 1.055-1.172 0-.647-.473-1.171-1.055-1.171h-3.271c-1.172-.533-1.95-1.808-1.95-3.228zm3.867 23.436V23.329h3.234v13.007h-3.235zm3.234 2.344v2.551h-3.235V38.68h3.235zm-9.67 7.486c0-1.429 1.046-2.591 2.331-2.591h11.443c1.286 0 2.332 1.162 2.332 2.59v1.208H20.947v-1.207zm24.544 13.49H12.508V58.45c0-1.428 1.046-2.59 2.332-2.59h20.028c.583 0 1.055-.525 1.055-1.173 0-.647-.472-1.172-1.055-1.172h-18.14v-1.206c0-1.43 1.045-2.591 2.331-2.591H38.94c1.286 0 2.332 1.162 2.332 2.59v2.38c0 .647.473 1.171 1.055 1.171h.832c1.286 0 2.332 1.163 2.332 2.591v1.207z" fill="#FFBC2B"/><path d="M43.382 53.52v-1.212c0-2.639-1.873-4.8-4.22-4.93v-1.212c0-2.721-1.992-4.935-4.44-4.935h-1.996V23.329c.583 0 1.055-.524 1.055-1.172v-4.092c1.709-.994 2.812-2.976 2.812-5.165V7.83c0-3.215-2.353-5.83-5.247-5.83h-4.693c-2.893 0-5.247 2.615-5.247 5.83v5.07c0 2.189 1.104 4.17 2.812 5.165v4.092c0 .648.473 1.172 1.055 1.172v17.902h-1.995c-2.449 0-4.44 2.214-4.44 4.935v1.213c-2.347.129-4.22 2.29-4.22 4.929v1.213c-2.346.129-4.22 2.29-4.22 4.928v2.38c0 .646.473 1.17 1.056 1.17h35.092c.582 0 1.055-.524 1.055-1.17v-2.38c0-2.638-1.873-4.8-4.22-4.928zM23.516 12.9V7.83c0-1.922 1.407-3.486 3.137-3.486h4.693c1.73 0 3.138 1.564 3.138 3.486v5.07c0 1.482-.846 2.805-2.105 3.293-.423.164-.707.608-.707 1.106v3.686h-5.344v-2.514h2.408c.582 0 1.055-.524 1.055-1.172 0-.647-.473-1.171-1.055-1.171h-3.271c-1.172-.533-1.95-1.808-1.95-3.228zm3.867 23.436V23.329h3.234v13.007h-3.235zm3.234 2.344v2.551h-3.235V38.68h3.235zm-9.67 7.486c0-1.429 1.046-2.591 2.331-2.591h11.443c1.286 0 2.332 1.162 2.332 2.59v1.208H20.947v-1.207zm24.544 13.49H12.508V58.45c0-1.428 1.046-2.59 2.332-2.59h20.028c.583 0 1.055-.525 1.055-1.173 0-.647-.472-1.172-1.055-1.172h-18.14v-1.206c0-1.43 1.045-2.591 2.331-2.591H38.94c1.286 0 2.332 1.162 2.332 2.59v2.38c0 .647.473 1.171 1.055 1.171h.832c1.286 0 2.332 1.163 2.332 2.591v1.207z" fill="url(#paint1_linear)" fill-opacity=".42" style="mix-blend-mode:overlay"/></g><g clip-path="url(#clip1)" fill="#2D2C2F"><path d="M37.7 52.458a1.29 1.29 0 00-.158-.422 1.112 1.112 0 00-.29-.324.981.981 0 00-.38-.175.94.94 0 00-.61.068 1.09 1.09 0 00-.57.634 1.29 1.29 0 000 .896 1.24 1.24 0 00.227.38 1.082 1.082 0 00.54.321 1.018 1.018 0 00.412 0 1.096 1.096 0 00.54-.321 1.24 1.24 0 00.308-.828c0-.077-.006-.154-.02-.23z"/><path d="M41.382 51.52v-1.212c0-2.639-1.873-4.8-4.22-4.93v-1.212c0-2.721-1.992-4.935-4.44-4.935h-1.995V21.329c.582 0 1.054-.524 1.054-1.172v-4.092c1.709-.994 2.813-2.976 2.813-5.165V5.83c0-3.215-2.354-5.83-5.247-5.83h-4.694c-2.893 0-5.247 2.615-5.247 5.83v5.07c0 2.189 1.104 4.17 2.813 5.165v4.092c0 .648.472 1.172 1.054 1.172v17.902H21.28c-2.45 0-4.442 2.214-4.442 4.935v1.213c-2.346.129-4.219 2.29-4.219 4.929v1.213c-2.346.129-4.219 2.29-4.219 4.928v2.38c0 .646.472 1.17 1.055 1.17h35.092c.583 0 1.055-.524 1.055-1.17v-2.38c0-2.638-1.873-4.8-4.22-4.928zM21.516 10.9V5.83c0-1.922 1.407-3.486 3.137-3.486h4.694c1.73 0 3.137 1.564 3.137 3.486v5.07c0 1.482-.846 2.805-2.104 3.293-.424.164-.708.608-.708 1.106v3.686h-5.344v-2.514h2.408c.583 0 1.055-.524 1.055-1.172 0-.647-.472-1.171-1.055-1.171H23.466c-1.173-.533-1.95-1.808-1.95-3.228zm3.867 23.436V21.329h3.234v13.007h-3.234zm3.234 2.344v2.551h-3.234V36.68h3.234zm-9.67 7.486c0-1.429 1.046-2.591 2.332-2.591H32.72c1.286 0 2.332 1.162 2.332 2.59v1.208H18.947v-1.207zm24.545 13.49H10.508V56.45c0-1.428 1.047-2.59 2.332-2.59H32.87c.582 0 1.054-.525 1.054-1.173 0-.647-.472-1.172-1.054-1.172H14.727v-1.206c0-1.43 1.047-2.591 2.332-2.591H36.94c1.286 0 2.332 1.162 2.332 2.59v2.38c0 .647.473 1.171 1.055 1.171h.833c1.285 0 2.332 1.163 2.332 2.591v1.207z"/></g><defs><linearGradient id="paint0_linear" x1="38.665" y1="53.515" x2="38.665" y2="55.858" gradientUnits="userSpaceOnUse"><stop stop-color="#fff"/><stop offset="1"/></linearGradient><linearGradient id="paint1_linear" x1="29" y1="2" x2="29" y2="62" gradientUnits="userSpaceOnUse"><stop stop-color="#fff"/><stop offset="1"/></linearGradient><clipPath id="clip0"><path fill="#fff" transform="translate(2 2)" d="M0 0h54v60H0z"/></clipPath><clipPath id="clip1"><path fill="#fff" d="M0 0h54v60H0z"/></clipPath></defs></svg>